<?xml version="1.0" standalone="no"?>
<!DOCTYPE svg PUBLIC "-//W3C//DTD SVG 20010904//EN"
 "http://www.w3.org/TR/2001/REC-SVG-20010904/DTD/svg10.dtd">
<svg version="1.0" xmlns="http://www.w3.org/2000/svg"
 width="300.000000pt" height="300.000000pt" viewBox="0 0 300.000000 300.000000"
 preserveAspectRatio="xMidYMid meet">
<metadata>
Created by potrace 1.10, written by Peter Selinger 2001-2011
</metadata>
<g transform="translate(0.000000,300.000000) scale(0.100000,-0.100000)"
fill="#000000" stroke="none">
<path d="M1510 2915 c0 -8 -4 -15 -10 -15 -5 0 -10 -6 -10 -13 0 -8 12 -14 30
-14 30 0 36 10 24 41 -8 20 -34 21 -34 1z"/>
<path d="M1503 2858 c-6 -7 -11 -34 -12 -60 -2 -47 -1 -48 29 -48 29 0 30 1
30 48 0 60 -24 90 -47 60z m30 -75 c-7 -2 -19 -2 -25 0 -7 3 -2 5 12 5 14 0
19 -2 13 -5z"/>
<path d="M1381 2725 c5 -61 37 -78 105 -53 28 10 42 8 89 -8 l57 -19 24 30
c23 29 34 93 14 80 -5 -3 -10 -16 -10 -29 0 -47 -55 -70 -94 -41 -26 20 -61
19 -97 -2 -37 -22 -61 -10 -70 36 -10 48 -21 52 -18 6z"/>
<path d="M1483 2721 c-1 -12 8 -16 38 -16 21 0 39 2 39 5 -1 28 -75 38 -77 11z"/>
<path d="M1487 2649 c-11 -6 -32 -8 -48 -5 -17 3 -29 1 -29 -5 0 -6 -4 -7 -10
-4 -5 3 -8 0 -5 -7 2 -7 6 -28 9 -47 5 -35 56 -100 56 -71 0 8 -7 24 -15 34
-18 24 -19 62 -2 69 9 3 12 -5 12 -29 -1 -19 2 -31 8 -27 6 3 7 1 3 -5 -3 -6
1 -15 10 -20 9 -5 15 -13 15 -18 0 -5 2 -17 5 -27 4 -12 -3 -28 -18 -45 l-23
-26 32 23 c34 23 61 22 83 -4 15 -18 -1 -20 -19 -2 -11 10 -13 9 -7 -6 3 -10
6 -47 6 -82 0 -60 1 -64 36 -90 39 -30 53 -27 36 8 -11 23 -22 137 -13 134 3
-1 7 3 8 8 1 6 -7 9 -18 8 -11 -2 -18 1 -15 6 3 5 -1 14 -9 21 -17 14 -18 100
-1 97 5 -1 11 3 11 8 4 29 18 65 26 65 17 0 22 -32 8 -41 -8 -5 -10 -9 -6 -9
5 0 -1 -12 -12 -27 -12 -14 -19 -29 -16 -31 8 -8 56 41 58 59 2 8 6 20 10 26
14 23 -11 51 -50 56 -21 3 -51 8 -68 12 -16 3 -38 0 -48 -6z m93 -26 c0 -3 -9
-3 -19 0 -10 2 -25 0 -32 -5 -11 -7 -9 -8 6 -6 14 2 19 -2 16 -12 -3 -8 -4
-27 -3 -42 1 -16 -3 -28 -8 -28 -6 0 -10 -10 -11 -22 l0 -23 -9 21 c-5 12 -13
25 -18 28 -6 3 -8 15 -5 25 3 10 0 22 -6 25 -7 5 -8 1 -4 -10 4 -12 3 -15 -5
-10 -19 11 -14 26 11 36 l22 9 -22 0 c-31 1 -29 15 5 27 25 10 82 0 82 -13z
m-10 -48 c-7 -9 -15 -13 -17 -11 -6 6 20 36 26 30 2 -2 -2 -10 -9 -19z m10
-255 c-9 -38 -11 -38 -14 2 -1 14 2 24 6 22 4 -3 8 0 8 7 0 7 2 10 4 8 3 -2 1
-20 -4 -39z"/>
<path d="M775 2609 c-4 -6 -1 -15 6 -20 21 -13 28 -11 25 8 -3 21 -22 28 -31
12z"/>
<path d="M2282 2606 c-13 -6 -25 -21 -29 -33 -3 -13 -8 -23 -12 -23 -4 0 -17
-17 -29 -39 -12 -21 -29 -44 -37 -51 -19 -16 -19 -30 0 -30 8 0 15 7 15 16 0
17 22 14 28 -4 2 -7 -5 -12 -15 -12 -15 0 -16 -2 -3 -11 12 -9 12 -10 -3 -5
-46 15 -65 17 -71 7 -5 -7 4 -11 23 -11 28 0 71 -31 71 -52 0 -4 11 -15 25
-24 25 -17 27 -16 60 16 47 45 46 72 0 31 -20 -17 -44 -31 -55 -31 -26 0 -36
41 -18 73 7 13 24 46 38 73 14 27 31 53 38 57 19 12 14 25 -10 30 l-23 4 23 2
c12 0 22 5 22 10 0 16 -13 18 -38 7z m8 -45 c0 -12 -20 -25 -27 -18 -7 7 6 27
18 27 5 0 9 -4 9 -9z m-30 -51 c0 -5 -4 -10 -9 -10 -6 0 -13 5 -16 10 -3 6 1
10 9 10 9 0 16 -4 16 -10z m-13 -37 c-8 -7 -37 9 -31 19 3 5 12 4 20 -3 8 -6
13 -14 11 -16z"/>
<path d="M813 2588 c1 -8 -7 -12 -20 -11 -24 3 -28 -4 -14 -26 6 -10 10 -10
16 -1 4 6 14 9 22 6 8 -3 12 -2 8 3 -3 5 0 11 7 13 6 2 8 10 4 16 -10 16 -27
15 -23 0z"/>
<path d="M835 2549 c-4 -6 -14 -8 -22 -5 -8 3 -11 1 -8 -4 3 -6 1 -10 -5 -10
-11 0 14 -55 35 -76 7 -7 12 -34 11 -61 -1 -45 -3 -48 -26 -45 -14 1 -30 10
-37 20 -7 9 -19 26 -27 37 -15 20 -15 20 -16 -2 0 -12 7 -28 15 -36 8 -8 12
-17 9 -19 -2 -3 3 -11 13 -19 15 -12 16 -12 8 1 -8 13 -7 13 8 1 14 -11 20
-11 41 3 14 8 27 25 31 36 7 23 44 35 84 27 38 -8 59 10 62 54 3 37 -14 70
-35 68 -7 0 -6 -2 2 -6 6 -2 9 -9 6 -14 -3 -6 -1 -16 5 -23 10 -12 8 -53 -4
-64 -3 -3 -15 -1 -28 5 -17 8 -30 7 -51 -4 -15 -8 -30 -12 -33 -9 -3 3 6 10
21 15 31 12 33 25 6 44 -11 8 -17 17 -12 22 6 8 -3 5 -43 -11 -11 -5 -13 -2
-9 10 4 11 0 16 -12 16 -18 1 -18 1 0 15 25 19 42 19 27 1 -8 -10 -9 -16 -1
-21 21 -13 30 6 15 36 -17 32 -21 34 -30 18z m70 -99 c4 -6 -1 -7 -11 -3 -12
4 -15 3 -10 -5 5 -8 2 -10 -9 -5 -13 5 -14 7 -3 14 17 11 26 11 33 -1z"/>
<path d="M2075 2510 c-9 -16 -12 -30 -8 -30 5 0 3 -4 -3 -8 -16 -10 0 -48 25
-62 14 -7 21 -7 21 0 0 5 -4 10 -9 10 -18 0 -21 37 -6 73 18 43 18 47 5 47 -5
0 -16 -13 -25 -30z"/>
<path d="M1022 2450 c0 -14 2 -19 5 -12 2 6 2 18 0 25 -3 6 -5 1 -5 -13z"/>
<path d="M1513 2400 c1 -22 5 -40 9 -40 4 0 8 18 8 40 0 22 -4 40 -9 40 -5 0
-8 -18 -8 -40z"/>
<path d="M1487 2424 c-4 -5 -19 -8 -32 -9 -14 0 -24 -4 -23 -10 2 -5 7 -9 12
-7 5 2 6 -14 2 -35 -4 -21 -7 -50 -7 -65 1 -16 -4 -28 -9 -28 -6 0 -9 -4 -6
-9 4 -5 0 -12 -6 -15 -10 -5 -10 -7 0 -12 6 -3 12 -23 12 -44 0 -33 -6 -44
-47 -80 -27 -23 -74 -60 -107 -82 -46 -32 -60 -37 -67 -27 -5 8 -6 21 -4 30 3
9 -7 26 -22 40 -22 19 -25 20 -13 4 10 -14 8 -13 -8 3 -12 13 -19 28 -16 34 4
6 2 8 -3 5 -6 -4 -14 0 -17 9 -4 10 -2 13 7 9 6 -4 3 1 -7 9 -11 9 -23 16 -28
16 -4 0 -8 5 -8 11 0 6 9 8 20 4 15 -5 18 -3 14 9 -6 17 -31 19 -74 7 -16 -5
-21 -9 -13 -14 10 -6 53 -90 53 -103 0 -2 -7 -4 -16 -4 -8 0 -13 4 -10 9 8 12
-19 73 -28 64 -4 -4 -4 0 -1 9 7 16 -11 35 -23 24 -7 -7 27 -76 38 -76 3 0 5
-14 4 -31 -2 -29 -1 -30 21 -15 34 22 90 4 115 -37 22 -35 12 -50 -26 -41 -14
4 -25 0 -31 -9 -4 -8 -19 -17 -33 -21 l-25 -7 23 20 c22 19 22 20 2 18 -11 -1
-20 -6 -20 -12 0 -5 -4 -3 -9 5 -11 16 -4 33 10 25 5 -4 12 1 15 9 8 21 23 20
41 -1 8 -10 12 -12 8 -5 -7 14 11 17 20 2 3 -5 12 -10 18 -10 20 1 -43 50 -63
50 -10 0 -31 -10 -46 -23 -25 -22 -26 -26 -16 -57 l12 -33 -21 19 c-18 16 -20
26 -15 69 5 39 2 59 -14 90 -11 21 -20 45 -20 52 0 19 -5 17 -41 -16 -20 -18
-28 -34 -24 -42 6 -9 11 -7 22 6 12 18 13 18 13 -3 0 -12 0 -24 0 -27 -1 -3 6
-13 15 -21 8 -9 13 -20 10 -25 -4 -5 -1 -9 4 -9 7 0 9 -14 6 -35 -3 -29 -1
-35 14 -35 25 0 34 -26 13 -35 -9 -4 -39 -13 -67 -20 -27 -7 -42 -13 -32 -14
9 -1 17 -5 17 -11 0 -5 -6 -7 -14 -4 -8 3 -23 1 -33 -5 -15 -9 -13 -10 12 -7
48 5 69 17 53 28 -9 7 -6 8 11 4 15 -3 33 2 49 15 14 10 29 19 35 19 6 0 39
11 74 25 35 14 69 23 76 19 6 -4 9 -3 4 1 -4 5 10 18 31 30 22 12 65 42 98 66
32 24 62 43 66 41 5 -1 7 1 5 6 -1 4 23 36 53 70 l55 62 40 -47 c22 -26 39
-51 37 -56 -1 -5 5 -16 15 -24 17 -13 16 -14 -6 -9 -17 3 -21 2 -13 -6 6 -6
22 -12 34 -13 14 -1 22 -8 22 -18 -1 -13 2 -14 18 -6 15 8 24 7 39 -7 10 -9
16 -21 13 -25 -3 -5 3 -6 12 -2 13 5 15 3 9 -8 -4 -8 -5 -11 -1 -7 5 4 47 -13
94 -38 93 -48 247 -104 287 -104 18 0 25 -5 25 -20 0 -13 6 -20 18 -19 10 0
12 3 5 6 -26 10 -12 19 23 15 27 -3 34 -8 30 -21 -5 -14 -5 -14 6 -1 21 26 56
22 72 -8 16 -32 19 -92 4 -92 -7 0 -7 -4 0 -12 11 -14 13 -130 3 -123 -4 2 -6
-15 -5 -38 0 -23 -3 -47 -7 -52 -4 -6 -7 -26 -7 -45 0 -19 -1 -37 -1 -40 -1
-3 -4 -24 -7 -48 -7 -70 -143 -406 -144 -355 0 7 -6 11 -12 9 -7 -1 -10 -1 -6
1 4 2 4 11 1 19 -3 8 0 14 5 14 6 0 12 -8 14 -18 2 -9 31 55 64 143 60 157 62
163 70 295 9 140 8 210 -4 308 -1 7 -18 12 -46 12 -77 0 -270 46 -260 61 3 5
-1 6 -9 3 -8 -3 -39 7 -67 21 -48 24 -54 25 -68 11 -12 -11 -12 -16 -4 -16 21
0 123 -68 171 -114 59 -56 118 -137 146 -201 25 -56 49 -163 46 -207 -1 -16 3
-28 9 -28 5 0 10 7 10 15 0 11 9 15 30 13 28 -2 29 -3 12 -22 -9 -11 -11 -16
-4 -12 7 4 12 2 12 -5 0 -7 -10 -9 -30 -5 -27 5 -30 3 -30 -19 0 -32 0 -31
-17 -89 -57 -192 -199 -354 -373 -425 -96 -39 -233 -73 -281 -70 -21 2 -41 0
-44 -3 -8 -7 46 -20 66 -16 11 2 14 -14 14 -80 1 -45 -2 -86 -5 -91 -9 -14
-50 -23 -50 -12 0 6 -9 11 -20 11 -19 0 -20 7 -20 99 l0 98 -89 12 c-64 9
-108 22 -163 49 l-75 37 -17 -23 -17 -22 -34 32 c-30 30 -32 35 -18 50 14 16
10 23 -43 82 -130 145 -187 341 -150 516 54 254 279 454 563 500 82 13 236 -4
321 -36 50 -19 68 -22 79 -13 11 10 5 17 -34 38 -55 31 -189 127 -201 144 -10
17 -77 75 -69 60 16 -26 -214 -199 -330 -248 -141 -60 -274 -96 -364 -97 l-58
-1 -7 -64 c-16 -153 13 -390 66 -533 49 -130 45 -118 26 -95 -29 33 102 -214
144 -274 l40 -55 -97 -98 c-90 -93 -95 -100 -89 -130 4 -18 9 -52 13 -76 l6
-42 78 0 77 0 35 48 c18 26 49 72 67 102 l34 56 50 -49 c28 -26 85 -71 126
-99 41 -28 75 -53 75 -57 -1 -35 -23 -216 -30 -248 -4 -17 9 -34 60 -78 l64
-57 61 54 61 53 -7 135 c-3 74 -9 140 -12 145 -3 6 -2 7 2 3 11 -9 154 80 220
136 l51 44 60 -103 c60 -102 60 -103 104 -109 24 -3 61 -6 81 -6 l37 0 16 77
15 78 -90 97 c-50 54 -95 98 -101 98 -6 0 1 12 15 28 76 82 208 328 253 472
48 155 56 208 62 413 l6 197 -39 0 c-48 0 -190 25 -259 45 -51 14 -51 15 -53
57 -4 78 -71 103 -134 51 -33 -28 -33 -28 -17 -3 17 27 49 46 89 54 18 4 38
26 68 75 29 49 47 68 57 64 10 -3 15 2 15 16 0 12 4 21 10 21 6 0 6 -9 1 -23
-5 -13 -5 -30 -1 -38 7 -11 10 -9 16 6 9 25 41 66 49 65 11 -3 30 7 25 13 -12
13 -63 11 -68 -3 -5 -13 -3 -13 14 0 17 14 18 14 6 -2 -22 -28 -40 -11 -38 37
1 34 4 43 18 42 13 -1 14 -4 6 -14 -13 -17 4 -17 21 0 11 10 13 10 7 0 -4 -8
-1 -13 8 -13 30 0 16 21 -24 38 -22 9 -40 20 -40 24 0 4 17 0 38 -9 61 -25 94
-44 88 -50 -3 -3 -13 0 -23 8 -15 12 -16 12 -10 -3 5 -14 1 -18 -14 -18 -11 0
-17 -5 -14 -10 4 -6 10 -8 15 -5 4 3 10 -1 13 -7 3 -10 9 -8 24 5 22 19 33 22
33 7 0 -6 -20 -25 -46 -43 -50 -35 -45 -46 10 -23 31 13 76 65 76 88 0 4 -11
10 -25 14 -14 3 -31 18 -38 33 -10 22 -20 27 -63 31 -28 3 -58 11 -66 18 -30
24 -78 -61 -62 -111 7 -24 24 -12 24 18 0 30 10 55 21 55 5 0 6 -23 3 -51 -9
-81 -62 -147 -93 -116 -8 8 -14 8 -23 -1 -9 -9 -8 -12 6 -12 14 0 8 -11 -25
-51 -24 -29 -57 -60 -74 -70 -16 -11 -24 -19 -17 -19 16 0 15 -10 -3 -34 -13
-17 -16 -17 -61 13 -78 53 -154 124 -154 143 0 28 -28 65 -59 78 -24 9 -35 9
-60 -5 -18 -9 -36 -26 -40 -38 -8 -20 -8 -20 -13 5 -4 20 0 28 13 31 30 8 50
62 47 128 -2 34 -7 57 -11 53z m3 -44 c0 -5 -2 -10 -4 -10 -3 0 -8 5 -11 10
-3 6 -1 10 4 10 6 0 11 -4 11 -10z m686 -14 c30 -23 13 -26 -26 -6 -27 15 -30
19 -14 20 11 0 29 -6 40 -14z m-689 -36 c-5 -31 -13 -32 -12 -1 0 16 3 27 7
25 4 -3 6 -14 5 -24z m77 -106 c5 -14 4 -15 -9 -4 -17 14 -19 20 -6 20 5 0 12
-7 15 -16z m391 -93 c-3 -6 -11 -11 -16 -11 -5 0 -4 6 3 14 14 16 24 13 13 -3z
m-280 -50 c4 -11 1 -10 -13 2 -10 9 -22 15 -25 12 -4 -3 -5 -2 -2 2 3 3 -3 16
-12 27 -14 15 -11 14 14 -4 17 -14 34 -31 38 -39z m-565 28 c0 -6 -4 -7 -10
-4 -5 3 -10 11 -10 16 0 6 5 7 10 4 6 -3 10 -11 10 -16z m-96 -29 c10 -13 9
-13 -6 -1 -10 7 -18 21 -17 30 0 13 1 14 6 1 3 -8 11 -22 17 -30z m541 10 c12
0 15 -15 15 -65 0 -63 -1 -65 -20 -55 -11 6 -25 8 -30 5 -5 -3 -12 0 -16 6 -4
8 -9 7 -15 -2 -5 -9 -9 7 -9 42 0 54 17 89 34 71 4 -4 7 -2 6 3 -5 22 1 29 11
13 5 -10 17 -18 24 -18z m395 16 c0 -2 -7 -6 -15 -10 -8 -3 -15 -1 -15 4 0 6
7 10 15 10 8 0 15 -2 15 -4z m-820 -16 c0 -5 -5 -10 -11 -10 -5 0 -7 5 -4 10
3 6 8 10 11 10 2 0 4 -4 4 -10z m335 -67 c-2 -10 -4 -25 -4 -33 -1 -11 -13
-15 -45 -15 -35 0 -42 3 -34 12 6 7 17 13 24 13 8 0 14 4 14 8 0 7 19 20 47
31 1 1 0 -7 -2 -16z m148 0 c-1 -6 11 -14 27 -18 17 -4 30 -11 30 -16 0 -6 -5
-7 -12 -3 -7 4 -8 3 -4 -5 4 -6 11 -9 15 -6 5 2 17 -2 27 -10 18 -15 18 -15
-6 -10 -14 3 -43 9 -64 13 -36 7 -40 11 -44 41 -3 27 0 32 15 29 10 -2 17 -9
16 -15z m331 -8 c10 -7 15 -18 11 -24 -3 -6 -1 -11 6 -11 9 0 9 -4 -1 -15 -6
-8 -9 -19 -5 -25 4 -6 -9 -4 -30 4 -21 9 -39 16 -42 16 -2 0 -1 5 3 12 5 8 2
9 -9 5 -22 -8 -28 4 -13 24 10 14 28 23 56 28 3 0 13 -6 24 -14z m41 -190 c6
-1 9 -6 8 -12 -1 -6 4 -17 13 -23 12 -11 13 -10 8 4 -7 19 8 20 74 5 78 -18
80 -19 52 -34 -19 -10 -28 -11 -39 -2 -10 8 -13 8 -8 1 4 -6 -1 -18 -11 -27
-16 -14 -20 -13 -57 22 -51 48 -85 87 -65 75 8 -5 20 -9 25 -9z m-935 -20
c-13 -14 -29 -25 -37 -25 -7 0 -13 -5 -13 -11 0 -7 -7 -8 -17 -4 -41 16 -46
16 -20 -1 34 -23 34 -32 1 -28 -20 2 -24 0 -15 -9 15 -15 14 -28 -1 -24 -7 1
-12 -6 -10 -15 4 -22 -1 -22 -38 -3 -18 9 -31 11 -35 5 -3 -6 0 -10 7 -10 7 0
19 -4 27 -9 12 -8 12 -13 -3 -35 -9 -14 -14 -26 -12 -26 3 0 -8 -27 -25 -59
-16 -33 -29 -66 -29 -75 0 -18 -34 -10 -52 12 -11 13 -10 14 12 8 19 -6 21 -5
10 3 -8 6 -10 11 -5 11 6 0 3 6 -5 13 -10 7 -16 30 -16 60 -1 42 0 46 15 35
13 -10 12 -8 -1 8 -21 24 -25 69 -5 58 9 -6 9 -4 1 7 -10 13 -15 49 -7 49 2 0
23 -10 46 -21 28 -15 38 -17 30 -7 -7 8 -9 19 -5 23 4 5 2 5 -5 1 -6 -3 -27 3
-45 14 -18 11 -31 21 -28 21 3 1 32 3 65 6 33 2 76 5 96 7 20 1 51 9 70 18 32
15 59 26 68 27 3 1 -6 -10 -19 -24z m1200 -24 c0 -5 -11 -12 -25 -15 -27 -7
-32 -20 -13 -32 6 -4 8 -3 4 4 -12 20 13 23 34 2 l20 -20 -48 -24 c-69 -35
-124 -57 -117 -47 2 5 -2 14 -10 21 -8 7 -12 16 -9 21 3 5 -2 9 -12 9 -13 0
-14 3 -4 15 7 8 18 15 24 15 6 1 38 14 71 30 63 31 85 36 85 21z m17 -147 c1
-34 -4 -53 -15 -61 -9 -7 -11 -13 -6 -13 12 0 10 -128 -2 -140 -5 -5 -19 -7
-31 -4 -14 4 -19 11 -16 25 3 12 0 19 -8 19 -8 0 -5 6 7 16 10 8 14 13 7 10
-14 -7 -23 5 -29 41 -3 15 -10 31 -17 35 -6 4 -8 10 -5 14 4 4 1 15 -6 26 -12
17 -12 22 2 38 8 11 20 17 24 13 5 -3 15 2 21 10 12 15 43 26 62 22 5 -1 11
-24 12 -51z m-1427 -192 c3 -3 0 -6 -6 -9 -6 -2 -8 -17 -6 -33 4 -27 1 -30
-22 -30 -20 0 -26 5 -26 23 0 12 -3 32 -6 44 -6 21 -4 23 27 17 19 -4 36 -9
39 -12z m1420 -58 c0 -11 -8 -14 -32 -12 -46 4 -49 28 -4 28 26 0 36 -4 36
-16z m-1443 -76 c-3 -8 -6 -5 -6 6 -1 11 2 17 5 13 3 -3 4 -12 1 -19z m1413
-18 c0 -5 -4 -10 -10 -10 -5 0 -10 5 -10 10 0 6 5 10 10 10 6 0 10 -4 10 -10z
m-1334 -239 c-6 -9 34 -85 95 -181 64 -100 228 -229 424 -335 l89 -48 51 17
c203 72 406 227 520 400 37 55 38 59 21 71 -10 8 -15 18 -11 24 8 14 35 14 35
0 0 -5 -4 -7 -10 -4 -6 3 -7 -1 -4 -9 3 -9 10 -13 16 -10 24 15 -55 -107 -146
-225 -8 -11 -8 -13 0 -8 14 8 78 -58 70 -72 -4 -6 -1 -9 7 -6 12 5 46 -26 94
-88 17 -22 20 -34 13 -52 -5 -12 -6 -26 -2 -30 3 -3 -1 -3 -11 1 -11 4 -19 0
-24 -12 -13 -35 -27 -43 -41 -25 -11 14 -12 13 -7 -7 6 -22 4 -23 -32 -20 -30
2 -38 7 -38 23 0 11 -6 22 -13 25 -8 3 -14 10 -14 15 0 6 -15 31 -34 56 -19
26 -34 52 -34 58 0 6 -5 11 -11 11 -6 0 -8 7 -5 15 5 14 4 14 -16 0 -13 -8
-31 -15 -41 -15 -10 0 -15 -4 -12 -10 3 -5 -5 -15 -19 -22 -14 -6 -26 -15 -26
-21 0 -5 -7 -7 -15 -3 -9 3 -15 0 -15 -10 0 -8 -4 -12 -10 -9 -5 3 -10 0 -10
-8 0 -8 -7 -18 -16 -21 -8 -3 -13 -2 -10 2 3 5 -1 9 -8 9 -8 0 -12 -6 -9 -14
3 -7 0 -13 -6 -13 -6 0 -11 8 -12 18 0 14 -2 14 -8 -3 -5 -12 -4 -23 2 -26 11
-8 -29 -23 -41 -15 -4 2 -14 0 -22 -6 -12 -8 -11 -9 4 -4 15 5 14 1 -8 -20
-18 -19 -23 -30 -15 -35 6 -4 9 -12 5 -17 -4 -6 -3 -35 2 -65 5 -30 5 -64 1
-76 -5 -12 -4 -21 1 -21 17 0 5 -55 -17 -76 -25 -25 -59 -44 -76 -44 -7 0 -32
14 -55 32 -38 29 -51 55 -36 71 5 5 15 109 16 179 1 15 4 26 7 24 3 -2 6 6 6
19 0 16 -5 21 -15 17 -8 -3 -12 -1 -8 3 5 5 -2 13 -13 19 -12 6 -21 15 -20 20
4 13 -22 27 -29 16 -3 -5 -24 6 -45 25 -22 19 -44 35 -48 35 -5 0 -5 5 -2 10
3 6 1 10 -5 10 -11 0 -24 9 -61 43 -18 16 -71 36 -56 20 7 -7 -23 -38 -36 -38
-6 0 -12 -6 -15 -14 -3 -9 0 -11 8 -6 7 4 2 -11 -11 -35 -13 -23 -29 -45 -36
-47 -6 -3 -9 -11 -7 -18 8 -20 -15 -29 -34 -12 -19 16 -41 12 -58 -11 -13 -18
-44 -25 -44 -11 0 6 -4 8 -9 5 -5 -3 -6 23 -3 59 3 47 1 65 -7 65 -7 0 -9 5
-5 11 4 8 9 8 17 0 6 -6 16 -11 22 -11 5 0 4 4 -4 9 -11 7 1 24 52 76 37 37
67 72 67 77 0 5 5 6 11 2 18 -11 0 39 -21 57 -27 23 -142 228 -135 239 3 6 8
10 11 10 3 0 3 -4 0 -9z m1144 -161 c-43 -63 -64 -80 -81 -63 -7 7 11 29 51
66 33 31 60 62 61 69 0 9 2 10 5 1 3 -7 -13 -40 -36 -73z m-1020 -5 c7 -9 8
-15 2 -15 -5 0 -12 7 -16 15 -3 8 -4 15 -2 15 2 0 9 -7 16 -15z m922 -117
c-17 -14 -28 -29 -25 -32 4 -3 2 -6 -4 -6 -12 0 -43 43 -43 60 0 5 6 10 13 10
7 0 19 9 27 20 14 19 14 19 38 -3 l23 -22 -29 -27z m-766 1 c57 -32 134 -57
189 -62 65 -6 88 -16 81 -34 -3 -8 -6 -39 -6 -68 0 -50 -1 -53 -22 -47 -21 5
-126 69 -138 83 -3 3 -18 13 -35 22 -16 8 -47 31 -68 50 -20 19 -44 38 -53 41
-13 5 -14 9 -4 21 15 19 12 19 56 -6z m707 -31 c3 -10 1 -18 -5 -18 -5 0 -6
-6 -2 -12 4 -7 4 -10 -1 -6 -4 4 -28 -11 -53 -33 -26 -22 -91 -62 -147 -89
l-100 -49 -3 71 c-2 39 1 75 6 80 5 5 47 20 93 32 46 13 104 32 129 43 49 22
74 16 83 -19z m-879 -276 c2 -4 -8 -8 -24 -7 -15 0 -26 3 -23 7 6 10 40 10 47
0z m1133 -17 c0 -8 -4 -15 -9 -15 -10 0 -11 14 -1 23 9 10 10 9 10 -8z"/>
<path d="M1505 2060 c-3 -5 -2 -10 4 -10 5 0 13 5 16 10 3 6 2 10 -4 10 -5 0
-13 -4 -16 -10z"/>
<path d="M1520 2009 c0 -5 5 -7 10 -4 6 3 10 8 10 11 0 2 -4 4 -10 4 -5 0 -10
-5 -10 -11z"/>
<path d="M1908 1963 c7 -3 16 -2 19 1 4 3 -2 6 -13 5 -11 0 -14 -3 -6 -6z"/>
<path d="M2058 1753 c7 -3 16 -2 19 1 4 3 -2 6 -13 5 -11 0 -14 -3 -6 -6z"/>
<path d="M915 1760 c27 -12 43 -12 25 0 -8 5 -22 9 -30 9 -10 0 -8 -3 5 -9z"/>
<path d="M900 1730 c-13 -8 -13 -10 2 -10 9 0 20 5 23 10 8 13 -5 13 -25 0z"/>
<path d="M800 1700 c6 -11 13 -20 16 -20 2 0 0 9 -6 20 -6 11 -13 20 -16 20
-2 0 0 -9 6 -20z"/>
<path d="M847 1619 c7 -7 15 -10 18 -7 3 3 -2 9 -12 12 -14 6 -15 5 -6 -5z"/>
<path d="M2182 1631 c-11 -7 -11 -9 0 -14 9 -3 15 1 15 9 0 8 -1 14 -1 14 -1
0 -7 -4 -14 -9z"/>
<path d="M2243 1605 c0 -8 4 -12 9 -9 5 3 6 10 3 15 -9 13 -12 11 -12 -6z"/>
<path d="M2180 1581 c0 -6 4 -13 10 -16 6 -3 7 1 4 9 -7 18 -14 21 -14 7z"/>
<path d="M1048 733 c7 -3 16 -2 19 1 4 3 -2 6 -13 5 -11 0 -14 -3 -6 -6z"/>
<path d="M1080 700 c-9 -6 -10 -10 -3 -10 6 0 19 -7 27 -16 9 -8 16 -11 16 -5
0 5 -5 13 -10 16 -6 4 -8 11 -5 16 8 12 -6 11 -25 -1z"/>
<path d="M1920 669 c0 -5 5 -7 10 -4 6 3 10 8 10 11 0 2 -4 4 -10 4 -5 0 -10
-5 -10 -11z"/>
<path d="M1086 661 c-3 -5 2 -15 12 -22 15 -12 16 -12 5 2 -7 9 -10 19 -6 22
3 4 4 7 0 7 -3 0 -8 -4 -11 -9z"/>
<path d="M2056 612 c-3 -5 1 -9 9 -9 8 0 12 4 9 9 -3 4 -7 8 -9 8 -2 0 -6 -4
-9 -8z"/>
<path d="M1040 599 c0 -5 5 -7 10 -4 6 3 10 8 10 11 0 2 -4 4 -10 4 -5 0 -10
-5 -10 -11z"/>
<path d="M1940 606 c0 -2 7 -9 15 -16 9 -7 15 -8 15 -2 0 5 -7 12 -15 16 -8 3
-15 4 -15 2z"/>
<path d="M1015 590 c-3 -5 -1 -10 4 -10 6 0 11 5 11 10 0 6 -2 10 -4 10 -3 0
-8 -4 -11 -10z"/>
<path d="M2110 593 c0 -6 8 -17 18 -24 16 -13 16 -13 2 6 -8 11 -16 22 -17 24
-2 2 -3 0 -3 -6z"/>
<path d="M1056 565 c-3 -8 -1 -15 3 -15 5 0 11 7 15 15 3 8 1 15 -3 15 -5 0
-11 -7 -15 -15z"/>
<path d="M2104 550 c0 -13 4 -16 10 -10 7 7 7 13 0 20 -6 6 -10 3 -10 -10z"/>
<path d="M955 540 c10 -11 20 -20 23 -20 3 0 -3 9 -13 20 -10 11 -20 20 -23
20 -3 0 3 -9 13 -20z"/>
<path d="M900 484 c0 -15 26 -19 34 -5 3 5 -3 11 -14 14 -13 3 -20 0 -20 -9z"/>
<path d="M1550 460 c0 -13 18 -22 24 -11 3 5 -1 11 -9 15 -8 3 -15 1 -15 -4z"/>
<path d="M1548 393 c7 -3 16 -2 19 1 4 3 -2 6 -13 5 -11 0 -14 -3 -6 -6z"/>
<path d="M1420 276 c0 -2 7 -6 15 -10 8 -3 15 -1 15 4 0 6 -7 10 -15 10 -8 0
-15 -2 -15 -4z"/>
<path d="M1468 273 c6 -2 18 -2 25 0 6 3 1 5 -13 5 -14 0 -19 -2 -12 -5z"/>
<path d="M1486 201 c-19 -7 -19 -8 0 -13 13 -3 21 0 21 8 0 8 -1 14 -1 13 -1
0 -10 -4 -20 -8z"/>
<path d="M997 2393 c-11 -11 -30 -16 -53 -15 -28 2 -41 -3 -62 -25 -15 -16
-40 -34 -56 -41 -24 -11 -27 -15 -15 -23 7 -5 11 -9 7 -9 -18 0 52 -61 73 -64
14 -1 30 -6 37 -10 7 -4 12 -2 12 3 0 6 5 11 11 11 5 0 7 -5 3 -12 -4 -7 -3
-8 4 -4 8 5 11 -2 8 -21 -2 -15 -1 -20 1 -10 2 9 8 15 13 12 5 -3 11 -1 15 5
3 5 18 10 32 10 l26 0 -24 26 c-13 14 -23 27 -21 30 9 15 -1 85 -14 98 -19 20
-5 21 21 2 14 -10 19 -24 17 -49 -3 -38 13 -59 22 -30 8 26 3 102 -6 97 -4 -3
-8 4 -8 15 0 25 -20 27 -43 4z m-43 -51 c-18 -13 -18 -14 3 -8 39 12 38 -19
-2 -42 -18 -11 -16 -12 10 -6 23 4 26 3 15 -5 -12 -8 -12 -11 -1 -11 8 0 11
-6 7 -17 -4 -9 -1 -20 5 -24 6 -4 8 -12 4 -19 -5 -8 -13 -3 -26 16 -10 15 -16
32 -13 36 3 5 2 8 -3 7 -21 -3 -54 15 -49 27 3 8 -1 14 -9 14 -8 0 -15 5 -15
10 0 6 5 10 10 10 6 0 10 6 10 14 0 16 25 24 54 17 19 -4 19 -4 0 -19z m-14
-116 c-6 -6 -15 -4 -26 5 -16 12 -17 12 -9 -1 5 -8 -3 -4 -18 10 -15 14 -27
33 -27 42 0 15 8 12 45 -14 29 -20 42 -35 35 -42z"/>
<path d="M1508 2288 c-15 -15 -16 -18 -3 -18 9 0 18 7 22 15 8 23 0 24 -19 3z"/>
<path d="M2044 2157 c-6 -12 -23 -43 -38 -69 -23 -39 -25 -51 -16 -69 7 -12
10 -31 8 -44 -4 -18 -1 -21 14 -17 11 2 17 10 15 16 -8 20 59 146 71 134 5 -5
12 -6 15 -1 2 4 -10 22 -27 40 -31 31 -31 31 -42 10z m6 -66 c0 -6 -5 -13 -10
-16 -6 -4 -7 -12 -4 -18 5 -9 4 -9 -5 -1 -6 6 -9 18 -5 27 7 18 24 23 24 8z"/>
<path d="M1460 2140 c0 -5 5 -10 10 -10 6 0 10 5 10 10 0 6 -4 10 -10 10 -5 0
-10 -4 -10 -10z"/>
<path d="M1570 2140 c0 -5 5 -10 11 -10 5 0 7 5 4 10 -3 6 -8 10 -11 10 -2 0
-4 -4 -4 -10z"/>
<path d="M1940 2056 c0 -2 7 -6 15 -10 8 -3 15 -1 15 4 0 6 -7 10 -15 10 -8 0
-15 -2 -15 -4z"/>
<path d="M1195 1940 c-3 -5 -1 -10 4 -10 6 0 11 5 11 10 0 6 -2 10 -4 10 -3 0
-8 -4 -11 -10z"/>
<path d="M1820 1940 c0 -5 5 -10 11 -10 5 0 7 5 4 10 -3 6 -8 10 -11 10 -2 0
-4 -4 -4 -10z"/>
<path d="M1430 1920 c-145 -19 -264 -77 -368 -178 -86 -84 -132 -159 -162
-262 -42 -146 -33 -250 36 -395 29 -62 55 -97 111 -153 41 -39 80 -72 87 -72
8 0 16 -6 19 -14 13 -33 273 -112 305 -92 5 3 9 31 10 63 2 32 5 77 8 100 4
29 3 43 -5 43 -6 0 -11 4 -11 9 0 5 19 8 43 6 34 -3 42 -7 39 -22 -1 -10 -4
-39 -6 -65 -3 -27 -8 -53 -12 -59 -4 -8 -3 -9 4 -5 8 4 12 0 12 -11 0 -30 -16
-46 -39 -38 -15 5 -21 2 -21 -9 0 -11 9 -16 31 -16 16 0 28 4 25 9 -3 5 0 14
8 20 10 8 14 35 14 91 -1 79 16 130 43 130 6 0 8 4 5 8 -2 4 20 5 51 2 42 -5
59 -12 74 -31 10 -13 16 -31 13 -39 -3 -8 -2 -11 2 -8 9 10 66 -70 59 -82 -6
-10 -65 -2 -79 11 -30 27 -139 -13 -150 -55 -3 -14 -11 -26 -16 -26 -6 0 -10
-7 -10 -15 0 -21 20 -19 129 10 120 32 233 97 307 178 51 55 54 60 37 72 -10
7 -32 11 -48 10 -18 -2 -38 3 -50 13 -19 16 -19 16 -6 0 7 -10 9 -18 4 -18
-15 0 -43 -68 -37 -87 3 -10 -14 3 -39 29 -69 74 -75 138 -8 104 34 -18 40
-12 14 16 -29 32 21 18 102 -30 30 -17 35 -18 18 -4 -12 11 -19 22 -16 26 4 3
-1 6 -10 6 -10 0 -17 4 -17 8 0 12 -58 31 -78 25 -14 -3 -36 16 -87 77 -68 82
-69 82 -86 61 -9 -11 -19 -21 -21 -21 -3 0 -4 22 -4 49 1 42 -4 55 -28 80 -46
48 -111 60 -164 32 -24 -13 -52 -14 -52 -3 0 36 60 59 106 42 15 -6 24 -6 24
0 0 11 -43 23 -84 23 -38 0 -86 -51 -86 -92 0 -43 9 -60 41 -76 43 -23 81 -18
125 15 46 35 60 37 74 10 22 -42 -35 -90 -106 -90 -55 0 -122 36 -141 75 -20
41 -11 94 21 132 13 15 22 36 20 46 -1 10 4 21 12 24 23 8 17 16 -51 68 -35
28 -66 56 -69 63 -3 7 -1 10 4 7 5 -3 20 1 32 9 29 19 141 46 193 46 35 0 135
-28 198 -55 35 -15 16 12 -23 32 l-41 20 26 17 c23 15 25 15 26 -1 0 -15 2
-14 9 3 13 32 34 43 25 13 -7 -22 -7 -22 10 -6 13 14 15 23 7 46 -8 24 -7 31
4 35 9 3 12 10 9 16 -3 6 -26 -15 -51 -45 -50 -61 -70 -75 -109 -75 -34 0 -55
48 -55 124 0 59 14 82 24 40 5 -17 12 -24 21 -20 8 3 15 0 15 -7 0 -8 4 -7 10
3 8 12 12 13 19 2 6 -10 10 -8 14 8 3 12 3 20 0 17 -7 -8 -63 14 -63 25 0 5 6
6 13 1 6 -4 23 -8 37 -8 19 -1 25 -6 25 -22 0 -12 3 -25 8 -29 4 -4 7 -2 7 4
0 8 7 9 25 2 14 -5 25 -6 25 -1 0 11 19 9 39 -3 10 -7 12 -6 6 4 -4 7 -4 11 1
8 5 -2 24 -10 42 -17 31 -12 32 -14 17 -31 -10 -11 -24 -16 -37 -12 -14 3 -19
1 -14 -6 4 -7 2 -12 -4 -12 -7 0 -10 -6 -7 -14 3 -7 -5 -30 -19 -49 -25 -38
-29 -47 -16 -47 9 0 67 102 64 113 -1 5 2 6 7 3 5 -4 12 -2 16 4 3 5 11 10 17
10 6 0 3 -9 -6 -19 -17 -18 -17 -19 2 -25 11 -4 28 -16 38 -27 15 -16 16 -22
5 -28 -11 -7 -9 -11 5 -19 14 -8 23 -7 37 5 21 20 35 10 17 -12 -31 -38 -132
-70 -153 -49 -3 4 1 20 9 36 9 17 14 31 12 33 -2 2 -54 -34 -116 -80 l-112
-84 30 -17 c48 -29 14 -34 -42 -7 -72 35 -131 33 -154 -4 -10 -16 -6 -18 47
-17 32 0 56 -3 54 -6 -2 -4 10 -14 26 -24 33 -20 72 -15 102 11 15 15 19 15
36 -1 19 -17 20 -16 47 41 15 32 29 60 31 63 3 3 20 -12 38 -33 29 -34 42 -66
60 -149 4 -19 12 -28 25 -28 20 0 25 -15 14 -44 -9 -23 -33 -8 -26 16 3 14 1
19 -6 14 -7 -4 -12 -17 -12 -29 0 -12 -9 -41 -20 -64 -11 -25 -15 -45 -9 -48
5 -4 12 7 15 24 4 17 13 36 20 42 8 6 11 15 8 20 -3 5 0 9 5 9 6 0 11 -7 11
-15 0 -11 -31 -85 -58 -137 -2 -5 3 -8 12 -8 9 0 16 7 16 15 0 8 4 15 8 15 5
0 13 9 18 21 l9 21 20 -23 c18 -20 18 -22 2 -16 -11 4 -16 3 -12 -3 4 -6 12
-9 18 -8 7 1 34 -8 60 -21 62 -30 72 -22 11 9 -53 28 -108 86 -100 107 3 8 6
21 6 29 0 8 14 23 31 33 24 15 44 18 97 14 42 -3 62 -1 54 5 -7 5 -44 8 -83 7
-38 -1 -72 2 -75 6 -2 4 44 8 104 7 83 0 109 -4 109 -14 0 -7 -16 -16 -36 -19
-20 -3 -45 -14 -56 -23 -24 -20 -47 -69 -37 -76 16 -10 45 1 48 18 2 14 0 15
-12 5 -15 -12 -19 -2 -6 19 5 7 17 10 28 6 16 -5 16 -4 4 5 -13 9 -12 12 8 17
12 4 22 10 22 15 0 5 10 9 23 9 21 -1 21 -1 3 -11 -15 -9 -16 -13 -5 -20 12
-7 11 -9 -1 -9 -13 0 -13 -1 0 -10 12 -8 9 -10 -12 -10 -15 0 -30 -5 -34 -11
-5 -9 1 -10 20 -5 19 5 26 3 26 -8 0 -8 -4 -17 -10 -21 -5 -3 -7 -12 -3 -20 3
-8 0 -15 -7 -15 -6 0 -9 -4 -5 -9 3 -5 1 -12 -5 -16 -6 -4 -7 -11 -4 -17 4 -6
-1 -8 -15 -3 -15 5 -21 2 -21 -9 0 -9 5 -16 10 -16 6 0 10 -5 10 -11 0 -5 -5
-7 -12 -3 -7 5 -8 3 -3 -6 6 -9 4 -12 -6 -8 -9 4 -14 -2 -15 -18 -1 -13 1 -24
5 -24 12 0 70 94 87 142 21 56 32 218 15 218 -7 0 -9 -4 -6 -10 3 -5 0 -11 -7
-11 -7 -1 -24 -3 -38 -4 -14 -1 -30 5 -37 14 -10 13 -8 17 10 23 13 3 -7 6
-45 7 -60 1 -71 4 -103 32 -26 23 -35 38 -33 58 2 16 -2 25 -9 23 -8 -1 -13 8
-13 24 0 17 -4 23 -12 19 -7 -4 -2 3 11 14 13 12 32 21 43 21 11 0 22 8 25 20
3 11 10 17 16 13 6 -3 7 -1 3 5 -4 6 6 18 23 27 33 17 55 20 47 6 -3 -5 1 -12
9 -15 8 -3 14 -9 13 -13 -1 -4 6 -20 16 -35 10 -15 19 -39 20 -52 0 -13 4 -22
7 -20 9 5 39 -77 39 -106 -1 -23 -2 -24 -14 -7 -8 10 -18 18 -23 18 -4 -1 -16
6 -26 14 -9 8 -21 15 -26 15 -19 0 -20 32 -2 60 10 17 20 28 22 25 3 -2 5 5 6
15 1 11 0 20 -2 20 -9 0 -54 -47 -57 -61 -2 -7 -7 -17 -13 -21 -13 -10 74 -88
97 -88 10 0 18 -4 18 -10 0 -5 11 -10 24 -10 22 0 23 2 15 44 -8 44 -55 166
-68 176 -3 3 -18 23 -34 46 -32 48 -113 119 -183 162 -120 74 -284 110 -424
92z m83 -26 c9 -1 17 2 17 7 0 5 7 9 16 9 12 0 15 -6 9 -22 -3 -13 -7 -28 -7
-35 -1 -7 -5 -10 -9 -7 -4 2 -10 0 -14 -6 -3 -5 -2 -10 4 -10 15 0 22 -34 13
-61 -7 -18 -5 -27 6 -35 13 -9 8 -12 -26 -16 -27 -2 -38 0 -32 6 6 6 10 19 10
31 0 16 2 17 10 5 5 -8 10 -10 10 -4 0 6 -3 14 -7 18 -5 4 -9 24 -11 44 -4 58
-5 62 -14 62 -4 0 -8 -31 -8 -70 0 -57 -4 -74 -20 -90 -22 -22 -51 -26 -81
-10 -19 11 -112 141 -105 148 2 2 28 -10 57 -26 65 -35 103 -37 107 -4 2 12 8
22 13 22 5 0 9 9 9 20 0 11 5 20 10 20 6 0 10 8 11 18 0 14 2 14 7 2 4 -8 15
-16 25 -16z m-83 -18 c0 -42 -34 -53 -87 -28 l-35 17 38 17 c57 26 84 24 84
-6z m285 -6 c3 -5 1 -10 -4 -10 -6 0 -11 5 -11 10 0 6 2 10 4 10 3 0 8 -4 11
-10z m-446 -45 c6 -3 11 -12 11 -19 0 -7 16 -34 36 -60 29 -38 33 -50 24 -61
-18 -22 -34 -18 -47 12 -10 21 -10 30 0 42 11 14 10 14 -5 2 -18 -13 -24 -7
-19 22 0 4 -6 7 -15 7 -9 0 -14 6 -12 12 3 7 -6 18 -20 25 -36 19 -37 17 -4
-24 35 -46 62 -96 62 -118 0 -14 -5 -13 -32 6 -29 21 -31 21 -26 3 3 -10 9
-27 13 -36 13 -33 -54 -22 -112 17 -53 36 -69 43 -58 26 3 -5 1 -12 -4 -16 -6
-3 -15 4 -21 15 -10 19 -8 20 32 15 33 -4 39 -3 28 6 -12 8 -9 10 12 6 15 -2
25 0 22 4 -3 5 3 9 13 9 10 0 29 10 43 21 14 11 20 18 14 15 -18 -9 -25 57 -8
70 14 11 54 11 73 -1z m-101 -48 c0 -15 -10 -27 -26 -35 -32 -15 -52 -15 -52
-2 0 6 5 10 11 10 7 0 22 11 35 25 28 31 32 31 32 2z m585 -8 c3 -12 3 -18 0
-15 -4 3 -15 -2 -26 -11 -18 -17 -18 -17 0 15 10 17 19 32 19 32 1 0 4 -9 7
-21z m163 -15 c21 -20 33 -33 25 -29 -9 5 -12 4 -7 -3 4 -7 16 -12 27 -12 10
0 19 -4 19 -10 0 -13 -4 -13 -44 4 -19 8 -37 24 -41 35 -3 12 -10 19 -14 17
-4 -3 -8 4 -8 15 -1 10 -1 19 1 19 1 0 20 -16 42 -36z m-854 -104 c17 0 138
-61 138 -69 0 -5 -7 -14 -15 -21 -11 -9 -15 -9 -15 -1 0 7 -4 10 -9 7 -5 -3
-26 8 -46 24 -21 17 -41 30 -44 30 -12 0 -51 40 -51 51 0 6 7 3 16 -5 8 -9 20
-16 26 -16z m238 -45 c12 -19 27 -35 33 -35 6 0 21 -10 34 -22 l23 -21 -27
-14 c-30 -15 -53 -3 -53 28 0 11 -4 19 -9 19 -6 0 -8 9 -6 19 2 14 -1 18 -10
15 -11 -5 -35 23 -35 40 0 19 32 1 50 -29z m475 13 c-3 -11 -16 -38 -30 -58
-14 -20 -25 -44 -25 -53 0 -21 -9 -21 -38 -1 -12 8 -27 12 -33 8 -8 -4 -8 0 0
15 11 20 24 26 46 21 6 -1 7 1 3 5 -11 11 20 37 33 29 8 -4 9 -3 5 4 -4 7 -1
12 6 12 9 0 9 3 -2 10 -13 8 -12 10 3 10 9 0 17 5 17 10 0 6 4 10 9 10 6 0 8
-10 6 -22z m-732 -9 c61 -31 107 -78 107 -110 0 -44 -23 -54 -127 -54 -51 1
-93 -3 -93 -7 0 -4 6 -8 13 -9 6 0 26 -2 42 -4 95 -11 116 -12 103 -3 -9 7 -8
8 7 6 16 -3 19 -10 17 -33 -4 -37 -8 -41 -26 -26 -8 7 -29 13 -46 13 -17 1
-33 4 -35 8 -5 8 -56 4 -87 -6 -15 -4 -18 1 -18 29 0 32 4 36 50 55 28 12 50
25 50 30 0 4 10 19 22 32 17 19 18 22 5 17 -14 -5 -16 -2 -12 20 3 17 -2 34
-12 45 -21 23 -12 23 40 -3z m824 -119 c32 -68 46 -130 28 -130 -7 0 -15 18
-19 40 -7 47 -37 103 -76 145 -15 17 -25 36 -23 43 8 22 60 -35 90 -98z m-17
100 c0 -5 -4 -10 -10 -10 -5 0 -10 5 -10 10 0 6 5 10 10 10 6 0 10 -4 10 -10z
m-855 -22 c6 -4 -3 -8 -19 -8 -24 0 -27 2 -16 15 7 9 16 12 19 8 3 -4 11 -11
16 -15z m299 -54 c36 -75 37 -76 56 -59 11 10 23 15 27 11 4 -4 3 -10 -3 -14
-17 -11 -46 -71 -39 -82 3 -5 1 -11 -4 -15 -6 -3 -8 -11 -6 -18 2 -7 6 -27 9
-44 6 -36 -9 -45 -19 -12 -6 19 -13 15 -76 -47 l-68 -68 -21 47 c-33 75 -32
177 3 252 26 54 81 125 98 125 4 0 23 -34 43 -76z m-307 17 c0 -10 -8 -18 -17
-17 -8 1 -14 -5 -12 -11 1 -7 -5 -13 -13 -13 -8 0 -15 7 -15 15 0 8 5 15 10
15 6 0 9 3 9 8 -3 17 2 22 20 22 13 0 19 -6 18 -19z m538 -141 c-3 -5 -1 -10
5 -10 24 0 21 -31 -4 -55 -31 -29 -45 -33 -25 -7 12 15 11 15 -8 -1 -23 -20
-68 -20 -68 0 0 6 -4 15 -9 20 -5 5 -6 3 -2 -4 9 -16 -10 -17 -19 -2 -4 6 1
16 11 24 11 7 21 9 22 4 2 -5 20 -8 40 -8 28 1 31 3 12 6 -24 5 -24 5 10 23
44 22 42 22 35 10z m30 0 c3 -5 1 -10 -4 -10 -6 0 -11 5 -11 10 0 6 2 10 4 10
3 0 8 -4 11 -10z m394 -2 c11 -11 12 -10 6 1 -5 9 1 7 19 -4 21 -14 29 -15 41
-5 15 12 35 6 35 -11 0 -5 -29 -9 -64 -9 -59 0 -65 2 -63 20 1 23 8 25 26 8z
m-359 -13 c10 -13 9 -15 -11 -14 -13 0 -18 3 -11 6 6 2 10 9 6 14 -9 15 2 10
16 -6z m-496 -35 c27 -25 29 -31 21 -56 -8 -22 -28 -39 -87 -69 -42 -22 -80
-36 -84 -32 -9 9 39 57 58 58 10 0 10 2 -1 6 -11 5 -11 7 0 15 10 7 6 8 -13 5
-16 -2 -28 0 -28 4 0 5 12 12 28 16 l27 7 -33 8 c-28 7 -32 12 -26 30 4 13 2
18 -4 14 -13 -8 -42 3 -42 16 0 5 34 8 77 7 67 -2 80 -5 107 -29z m-167 -35
c8 -8 18 -13 21 -11 9 5 7 -47 -2 -62 -4 -7 -15 -12 -25 -12 -15 0 -19 9 -20
50 -1 54 2 58 26 35z m493 -89 c0 -5 -7 -3 -15 4 -8 7 -15 9 -15 5 0 -5 -9 0
-20 10 -36 33 -23 48 15 18 19 -15 35 -32 35 -37z m210 28 c-18 -21 -24 -10
-8 15 7 12 14 17 16 11 2 -6 -2 -17 -8 -26z m-503 -50 c-3 -3 -25 -7 -49 -9
-55 -3 -53 -2 -37 -22 7 -10 10 -15 6 -12 -4 4 -21 -7 -38 -23 -20 -20 -35
-28 -47 -23 -12 4 -14 3 -6 -5 8 -8 32 0 88 29 98 52 150 55 96 6 -30 -27 -24
-34 18 -20 61 22 57 -17 -14 -122 -44 -64 -44 -66 -10 -29 20 21 36 43 36 48
0 5 4 7 9 3 5 -3 13 0 17 6 4 8 3 9 -4 5 -7 -4 -12 -2 -12 3 0 6 7 11 16 11
10 0 14 6 10 15 -3 8 -1 15 5 15 6 0 7 5 3 12 -4 7 -3 8 5 4 6 -4 8 -12 5 -18
-4 -7 -2 -8 4 -4 7 4 12 2 12 -4 0 -6 4 -9 9 -5 5 3 12 -4 16 -15 5 -15 0 -26
-17 -40 -13 -11 -27 -19 -31 -20 -5 0 -6 -4 -3 -8 3 -5 -6 -20 -20 -35 -14
-15 -22 -27 -18 -27 3 0 1 -7 -6 -15 -7 -9 -11 -18 -8 -20 2 -3 23 22 46 55
52 73 83 91 137 81 51 -10 101 -36 109 -56 10 -27 7 -155 -4 -155 -5 0 -10 14
-10 30 0 17 -4 30 -9 30 -15 0 -22 -30 -11 -50 6 -10 10 -21 10 -24 0 -14 -80
-4 -130 15 -30 11 -67 25 -82 31 -22 8 -25 12 -15 23 7 7 15 11 18 9 4 -2 13
4 20 13 12 15 12 16 -3 10 -11 -4 -18 -2 -18 5 0 6 -11 2 -23 -11 -25 -23 -45
-21 -82 8 -27 22 -29 57 -5 88 19 24 19 26 3 39 -10 7 -23 14 -30 14 -20 0 -2
50 18 50 6 0 8 -4 5 -9 -4 -5 3 -7 14 -4 11 3 17 9 14 14 -11 18 -41 8 -69
-21 -22 -23 -26 -33 -17 -42 7 -7 12 -9 12 -4 0 4 7 0 16 -8 10 -11 13 -23 8
-38 -5 -13 -7 -26 -6 -30 1 -4 -5 -5 -13 -2 -8 4 -15 12 -15 19 0 7 -16 29
-36 49 -29 29 -34 40 -25 49 10 9 15 8 25 -5 12 -16 14 -16 24 7 10 21 9 23
-9 20 -10 -2 -19 1 -19 6 0 6 -8 5 -21 -1 -17 -9 -23 -8 -34 6 -7 10 -11 26
-10 36 2 11 -2 18 -11 18 -30 0 -12 20 29 30 23 6 67 24 97 39 52 27 55 27 64
10 5 -11 7 -22 3 -25z m177 15 c-3 -5 0 -9 7 -9 20 0 -4 -20 -29 -25 -12 -2
-27 -7 -32 -10 -6 -3 -15 -3 -20 0 -13 8 19 63 39 68 19 4 43 -12 35 -24z m29
16 c-3 -9 -8 -14 -10 -11 -3 3 -2 9 2 15 9 16 15 13 8 -4z m399 -22 c0 -4 9
-14 19 -21 10 -7 16 -19 13 -27 -5 -13 -10 -13 -34 0 -16 8 -34 15 -40 15 -6
0 -18 7 -26 15 -14 14 -11 19 8 16 4 0 12 8 18 19 10 18 13 19 26 6 8 -9 15
-19 16 -23z m-341 2 c52 -43 151 -46 208 -6 37 26 50 27 27 2 -17 -19 -17 -20
15 -34 19 -8 60 -27 92 -41 55 -25 57 -25 47 -5 -7 11 -9 23 -6 27 3 3 6 0 6
-7 0 -7 4 -10 8 -7 5 3 16 -4 25 -15 21 -24 21 -30 2 -23 -8 4 -40 -10 -70
-31 -31 -20 -63 -35 -72 -33 -11 2 -1 12 30 28 26 14 47 31 47 38 0 8 -13 4
-37 -12 -121 -78 -300 -70 -416 18 -46 35 -57 33 -22 -4 16 -16 34 -30 40 -30
7 0 20 -9 30 -20 10 -11 21 -17 26 -14 5 3 19 -1 31 -9 15 -9 51 -14 105 -13
79 1 105 -6 65 -16 -47 -13 -150 0 -221 27 -73 28 -148 86 -136 106 6 9 -8 13
-32 10 -19 -3 -16 16 3 23 10 4 21 0 28 -10 11 -15 19 -14 90 8 65 21 75 27
61 38 -15 12 -20 30 -9 30 3 0 19 -11 35 -25z m70 -3 c-7 -2 -18 1 -23 6 -8 8
-4 9 13 5 13 -4 18 -8 10 -11z m-531 -2 c0 -5 -2 -10 -4 -10 -3 0 -8 5 -11 10
-3 6 -1 10 4 10 6 0 11 -4 11 -10z m848 -170 c7 -12 10 -26 6 -32 -4 -6 -3 -8
3 -5 5 4 16 -5 23 -18 7 -13 16 -22 20 -20 4 2 17 -7 30 -20 27 -28 50 -19 50
21 0 12 5 26 10 29 6 4 8 10 6 14 -3 4 13 8 35 9 21 2 39 -1 39 -5 0 -14 -77
-88 -92 -88 -7 0 -12 -8 -12 -17 1 -10 -4 -14 -12 -11 -8 3 -14 0 -14 -6 0 -6
-7 -11 -15 -11 -8 0 -15 -4 -15 -9 0 -5 -7 -12 -16 -15 -8 -3 -13 -2 -10 3 6
9 -7 37 -38 84 -15 22 -17 30 -7 37 9 5 10 10 2 14 -6 4 -11 2 -11 -5 0 -7
-11 -2 -25 11 -14 13 -25 28 -24 34 0 6 3 5 6 -2 4 -10 9 -8 20 7 18 26 25 26
41 1z m-38 -198 c28 -11 27 -12 -63 -37 -79 -23 -95 -18 -67 18 13 16 29 26
36 23 8 -3 14 -1 14 5 0 11 41 7 80 -9z"/>
<path d="M1437 1786 c-4 -10 -3 -15 3 -11 6 3 10 2 10 -4 0 -5 -6 -12 -12 -14
-10 -4 -10 -6 -1 -6 18 -1 25 17 15 35 -8 15 -10 15 -15 0z"/>
<path d="M1035 1570 c27 -12 43 -12 25 0 -8 5 -22 9 -30 9 -10 0 -8 -3 5 -9z"/>
<path d="M1057 1543 c-10 -9 -9 -23 1 -23 5 0 9 7 9 15 0 17 -1 18 -10 8z"/>
<path d="M1080 1530 c0 -5 5 -10 11 -10 5 0 7 5 4 10 -3 6 -8 10 -11 10 -2 0
-4 -4 -4 -10z"/>
<path d="M1050 1491 c14 -11 26 -18 29 -16 5 6 -23 30 -39 33 -8 1 -4 -6 10
-17z"/>
<path d="M1105 1501 c-3 -5 -1 -12 5 -16 5 -3 10 1 10 9 0 18 -6 21 -15 7z"/>
<path d="M1231 1540 c-13 -11 -33 -45 -46 -75 -12 -30 -26 -51 -30 -47 -5 4
-5 -1 -2 -10 4 -10 2 -18 -3 -18 -6 0 -10 -5 -10 -11 0 -5 3 -8 8 -5 4 2 7
-13 7 -34 0 -21 -3 -36 -7 -34 -13 9 -9 -9 7 -26 8 -9 16 -27 18 -41 2 -13 8
-23 13 -22 13 2 17 23 5 23 -6 0 -8 6 -5 14 3 8 2 16 -3 19 -5 3 -7 37 -6 76
2 75 27 148 65 188 26 28 21 29 -11 3z"/>
<path d="M1033 1299 c-1 -12 4 -19 15 -18 11 0 12 2 4 6 -6 2 -10 9 -7 13 3 5
2 11 -3 14 -4 2 -9 -4 -9 -15z"/>
<path d="M980 1130 c-9 -6 -10 -10 -3 -10 6 0 15 5 18 10 8 12 4 12 -15 0z"/>
<path d="M1320 970 c-7 -5 0 -9 19 -12 17 -2 31 -1 31 3 0 11 -36 17 -50 9z"/>
<path d="M1383 955 c0 -7 8 -10 18 -8 10 3 19 -2 22 -11 4 -15 5 -14 3 0 -1
20 -43 39 -43 19z"/>
<path d="M1256 922 c-3 -5 1 -9 9 -9 8 0 12 4 9 9 -3 4 -7 8 -9 8 -2 0 -6 -4
-9 -8z"/>
<path d="M1350 912 c0 -6 -11 -22 -25 -36 -30 -30 -30 -31 -5 -33 11 -1 19 1
18 5 -1 4 4 20 11 36 6 16 9 31 6 34 -3 3 -5 0 -5 -6z"/>
<path d="M1130 900 c0 -5 5 -10 10 -10 6 0 10 5 10 10 0 6 -4 10 -10 10 -5 0
-10 -4 -10 -10z"/>
<path d="M1257 881 c-2 -11 -3 -22 0 -24 7 -7 63 23 63 34 0 11 -11 11 -30 -1
-9 -6 -17 -5 -21 1 -3 6 -9 2 -12 -10z"/>
<path d="M1365 879 c-8 -12 29 -51 39 -42 12 12 6 33 -13 43 -14 7 -22 7 -26
-1z"/>
<path d="M1100 1896 c0 -9 5 -16 10 -16 6 0 10 4 10 9 0 6 -4 13 -10 16 -5 3
-10 -1 -10 -9z"/>
<path d="M1965 1890 c3 -5 11 -10 16 -10 6 0 7 5 4 10 -3 6 -11 10 -16 10 -6
0 -7 -4 -4 -10z"/>
<path d="M793 1871 c-34 -3 -65 -9 -69 -14 -19 -19 -7 -360 16 -447 5 -19 14
-53 19 -75 9 -35 9 -32 4 24 -3 35 -9 78 -14 95 -12 41 -23 148 -22 216 3 162
5 180 22 181 9 0 30 2 46 4 17 3 45 6 63 9 18 2 36 6 39 10 7 7 -9 6 -104 -3z"/>
<path d="M2076 1852 c-2 -4 4 -8 14 -8 10 0 16 4 14 8 -3 4 -9 8 -14 8 -5 0
-11 -4 -14 -8z"/>
<path d="M795 1840 l-30 -8 30 0 c17 0 39 3 50 8 20 9 20 9 0 8 -11 0 -33 -4
-50 -8z"/>
<path d="M1580 1820 c0 -5 5 -10 10 -10 6 0 10 5 10 10 0 6 -4 10 -10 10 -5 0
-10 -4 -10 -10z"/>
<path d="M1668 1797 c-16 -6 -28 -15 -28 -19 0 -5 9 -4 20 2 11 6 24 9 29 6 4
-3 8 1 8 9 0 8 -1 15 -1 14 -1 -1 -13 -6 -28 -12z"/>
<path d="M1810 1736 c0 -3 9 -10 20 -16 11 -6 20 -8 20 -6 0 3 -9 10 -20 16
-11 6 -20 8 -20 6z"/>
<path d="M1498 1679 c-7 -4 -15 -6 -19 -3 -4 2 -10 0 -14 -6 -4 -6 17 -10 57
-10 35 -1 87 -9 118 -20 66 -23 77 -19 18 6 -58 24 -145 42 -160 33z"/>
<path d="M1856 1661 c-3 -5 1 -12 10 -15 20 -8 29 -1 19 13 -8 13 -22 14 -29
2z"/>
<path d="M1380 1648 c0 -10 19 -9 45 2 16 7 14 8 -12 7 -18 -1 -33 -5 -33 -9z"/>
<path d="M1966 1622 c5 -4 11 -16 12 -26 3 -16 1 -18 -10 -8 -11 9 -22 5 -50
-18 -19 -16 -39 -26 -44 -22 -5 4 -2 -1 5 -11 13 -17 15 -17 35 1 12 10 36 25
53 32 18 7 30 17 26 23 -3 6 -1 7 6 3 6 -4 21 -4 32 -1 30 10 10 25 -36 30
-21 2 -34 0 -29 -3z"/>
<path d="M2054 1505 c3 -21 16 -31 16 -12 0 9 -4 18 -9 21 -5 4 -8 -1 -7 -9z"/>
<path d="M1935 1500 c-8 -13 15 -24 27 -12 6 6 4 11 -6 15 -8 3 -18 2 -21 -3z"/>
<path d="M1957 1459 c7 -7 15 -10 18 -7 3 3 -2 9 -12 12 -14 6 -15 5 -6 -5z"/>
<path d="M1990 1300 c0 -5 5 -10 10 -10 6 0 10 5 10 10 0 6 -4 10 -10 10 -5 0
-10 -4 -10 -10z"/>
<path d="M1927 1261 c-4 -17 -3 -21 5 -13 5 5 8 16 6 23 -3 8 -7 3 -11 -10z"/>
<path d="M780 1245 c0 -5 5 -17 10 -25 5 -8 10 -10 10 -5 0 6 -5 17 -10 25 -5
8 -10 11 -10 5z"/>
<path d="M1950 1234 c0 -8 5 -12 10 -9 6 4 8 11 5 16 -9 14 -15 11 -15 -7z"/>
<path d="M2070 1210 c-8 -5 -10 -10 -5 -10 6 0 17 5 25 10 8 5 11 10 5 10 -5
0 -17 -5 -25 -10z"/>
<path d="M1996 1201 c-3 -5 1 -11 9 -15 8 -3 15 -12 15 -19 0 -8 7 -20 15 -27
12 -10 15 -9 15 6 0 16 2 17 10 4 5 -8 10 -10 10 -5 0 20 -18 37 -30 30 -8 -5
-11 -4 -6 3 3 6 -2 16 -13 22 -11 6 -22 6 -25 1z"/>
<path d="M1880 1050 c-13 -8 -12 -10 3 -10 9 0 17 5 17 10 0 12 -1 12 -20 0z"/>
<path d="M1853 1015 c-3 -9 -3 -18 -1 -21 3 -3 8 4 11 16 6 23 -1 27 -10 5z"/>
<path d="M1650 940 c0 -5 5 -10 10 -10 6 0 10 5 10 10 0 6 -4 10 -10 10 -5 0
-10 -4 -10 -10z"/>
<path d="M1590 931 c0 -6 4 -12 8 -15 5 -3 9 1 9 9 0 8 -4 15 -9 15 -4 0 -8
-4 -8 -9z"/>
<path d="M1665 910 c-16 -6 -13 -8 13 -7 17 0 32 1 32 2 0 8 -28 11 -45 5z"/>
<path d="M1616 900 c-11 -3 -15 -9 -10 -13 10 -6 42 9 34 16 -3 3 -14 1 -24
-3z"/>
<path d="M1750 891 c0 -6 4 -13 10 -16 6 -3 7 1 4 9 -7 18 -14 21 -14 7z"/>
<path d="M1480 880 c0 -5 5 -10 11 -10 5 0 7 5 4 10 -3 6 -8 10 -11 10 -2 0
-4 -4 -4 -10z"/>
<path d="M1585 870 c3 -5 8 -10 11 -10 2 0 4 5 4 10 0 6 -5 10 -11 10 -5 0 -7
-4 -4 -10z"/>
<path d="M1070 845 c0 -10 3 -15 7 -12 3 4 12 -1 19 -11 7 -9 14 -12 14 -6 0
6 -9 19 -20 29 -19 17 -20 17 -20 0z"/>
<path d="M1503 641 c0 -11 5 -18 9 -15 4 3 5 11 1 19 -7 21 -12 19 -10 -4z"/>
<path d="M1510 576 c0 -19 3 -37 8 -40 4 -2 6 13 4 35 -5 48 -12 51 -12 5z"/>
</g>
</svg>
