<?xml version="1.0" standalone="no"?>
<!DOCTYPE svg PUBLIC "-//W3C//DTD SVG 20010904//EN"
 "http://www.w3.org/TR/2001/REC-SVG-20010904/DTD/svg10.dtd">
<svg version="1.0" xmlns="http://www.w3.org/2000/svg"
 width="900.000000pt" height="900.000000pt" viewBox="0 0 900.000000 900.000000"
 preserveAspectRatio="xMidYMid meet">
<metadata>
Created by potrace 1.16, written by Peter Selinger 2001-2019
</metadata>
<g transform="translate(0.000000,900.000000) scale(0.100000,-0.100000)"
fill="#000000" stroke="none">
<path d="M4503 8343 c-8 -3 -13 -24 -13 -54 l0 -49 70 0 70 0 0 55 0 55 -57
-1 c-32 0 -64 -3 -70 -6z"/>
<path d="M4992 8162 c-26 -59 -81 -126 -123 -148 -63 -32 -166 -8 -197 46 -16
28 -20 30 -82 31 -36 0 -75 2 -87 3 -16 2 -30 -8 -48 -36 -14 -21 -24 -38 -21
-38 2 0 21 7 42 16 56 23 137 14 221 -26 40 -19 98 -37 142 -44 l74 -10 29 34
c47 55 80 133 76 182 l-3 43 -23 -53z"/>
<path d="M4516 7970 c-15 -5 -46 -21 -68 -36 l-39 -27 -72 16 c-98 23 -104 22
-115 -15 -20 -65 -20 -80 -6 -136 15 -57 34 -91 34 -60 0 9 7 18 15 22 9 3 15
18 15 39 0 43 32 76 55 57 8 -7 15 -23 15 -37 0 -32 23 -85 44 -103 27 -22 87
-120 81 -130 -3 -5 0 -20 7 -32 11 -21 19 -66 20 -108 0 -17 -6 -45 -18 -75
-6 -16 -2 -15 23 8 35 33 88 38 124 14 13 -10 26 -17 29 -17 3 0 5 51 5 114 0
103 2 118 22 143 55 69 114 163 119 191 4 17 13 33 20 36 19 7 54 -28 55 -56
3 -48 4 -53 21 -56 27 -5 41 43 35 126 -2 40 -7 75 -10 78 -4 4 -48 1 -100 -6
l-93 -13 -27 25 c-43 40 -127 57 -191 38z"/>
<path d="M6869 7806 c-8 -18 -19 -24 -38 -23 -22 2 -30 -6 -53 -53 -16 -30
-42 -70 -59 -88 -20 -22 -29 -40 -26 -53 3 -10 1 -17 -3 -14 -4 3 -23 -21 -40
-52 -18 -32 -38 -61 -45 -65 -6 -4 -25 -26 -40 -50 -16 -24 -42 -55 -57 -70
-15 -15 -28 -28 -28 -30 0 -5 54 -32 115 -60 28 -12 53 -24 56 -25 5 -3 41 78
36 83 -6 5 -93 47 -97 47 -17 0 -40 11 -40 18 0 14 13 11 83 -21 37 -16 68
-30 71 -30 9 0 46 72 41 80 -3 4 1 10 8 13 23 9 119 179 108 190 -7 7 -2 18
17 35 21 20 23 26 12 30 -40 12 -83 33 -78 37 3 3 27 -4 53 -15 26 -11 49 -19
50 -18 1 2 8 14 15 26 10 21 9 27 -10 46 l-21 23 21 14 c28 18 17 49 -16 49
-16 0 -28 -8 -35 -24z"/>
<path d="M6222 7482 c-29 -66 -44 -133 -40 -173 3 -30 9 -37 58 -61 55 -28 55
-28 156 -16 101 12 101 12 146 -15 24 -14 56 -42 69 -61 13 -20 28 -36 32 -36
4 0 7 20 5 45 l-3 46 -90 40 -90 40 -53 -25 c-87 -43 -122 -33 -152 42 -9 24
-11 60 -6 128 4 54 3 94 -3 94 -5 0 -18 -21 -29 -48z"/>
<path d="M2977 7470 c4 -19 8 -75 8 -123 0 -85 -1 -90 -28 -113 -36 -31 -73
-30 -139 2 l-53 25 -89 -39 -90 -40 -12 -49 c-19 -70 -17 -74 14 -18 31 57 67
81 142 95 42 8 65 7 112 -6 68 -19 130 -14 167 14 24 18 26 24 26 103 -1 78
-3 87 -34 134 -32 49 -33 49 -24 15z"/>
<path d="M4544 7303 c-9 -16 -19 -112 -15 -153 6 -69 18 -131 21 -105 1 17 2
33 1 38 0 4 4 7 9 7 6 0 10 -4 10 -10 0 -5 5 -10 11 -10 6 0 8 8 4 19 -3 11 1
25 9 34 8 8 12 18 8 21 -3 4 -2 10 4 14 18 12 1 132 -21 148 -24 18 -28 18
-41 -3z"/>
<path d="M4635 7081 c0 -256 -3 -247 77 -287 27 -14 67 -41 88 -60 63 -57 87
-25 44 57 -9 19 -18 84 -24 191 -5 90 -12 175 -15 189 -6 23 -3 28 22 36 l28
10 -38 7 c-44 8 -109 36 -152 65 l-30 20 0 -228z"/>
<path d="M4430 7255 c-36 -19 -78 -35 -95 -36 -26 -1 -27 -2 -6 -6 24 -5 24
-5 16 -96 -4 -51 -9 -114 -11 -142 -5 -68 -22 -151 -41 -203 -9 -23 -13 -45
-10 -48 3 -4 22 -3 42 0 49 10 105 63 146 138 l34 63 0 182 c0 101 -2 183 -5
182 -3 0 -34 -16 -70 -34z"/>
<path d="M6109 7208 c-23 -29 -45 -63 -50 -75 -11 -29 -19 -103 -11 -100 8 2
12 -7 12 -25 0 -9 -4 -8 -10 2 -8 11 -10 -1 -9 -42 2 -31 6 -55 11 -52 5 3 6
22 3 42 -3 24 -2 30 3 18 7 -17 11 -13 25 22 21 53 22 69 2 52 -10 -9 -15 -9
-15 -1 0 6 5 11 11 11 5 0 7 6 3 13 -6 8 -3 8 9 -1 14 -12 19 -12 32 2 39 39
44 24 42 -144 -1 -95 -6 -164 -12 -168 -6 -4 -19 -24 -30 -44 -11 -21 -23 -38
-27 -38 -3 0 -13 -13 -22 -30 -14 -28 -13 -30 5 -30 11 0 17 5 14 10 -4 6 5
10 19 10 29 0 35 -16 9 -22 -13 -3 -8 -9 17 -20 20 -8 48 -30 63 -47 20 -24
27 -28 27 -15 0 9 -8 23 -17 30 -17 13 -17 15 1 29 10 8 24 12 29 8 6 -4 8 0
4 10 -3 10 -3 17 2 17 4 0 13 11 19 25 6 14 17 24 24 23 7 -2 12 3 13 9 0 7
11 20 25 30 14 9 34 25 44 35 10 9 22 15 26 13 4 -3 10 4 13 15 3 11 1 18 -4
14 -5 -3 -9 1 -9 9 0 10 -7 13 -20 10 -11 -3 -20 -9 -20 -15 0 -9 -18 -29 -57
-62 -14 -12 -23 -14 -23 -7 0 14 86 101 99 101 5 0 17 3 27 7 12 4 15 3 10 -5
-9 -14 -1 -15 42 -3 37 11 45 -4 10 -20 -18 -7 -14 -8 17 -3 22 3 61 21 86 40
51 37 69 42 69 19 0 -22 -19 -52 -68 -112 -24 -29 -40 -53 -37 -53 25 0 150
79 173 109 30 38 82 128 82 142 0 4 -26 15 -57 24 -91 25 -103 32 -123 78 -25
57 -55 94 -90 112 -32 16 -124 19 -181 6 -34 -8 -42 -5 -100 40 -35 27 -70 48
-76 49 -7 0 -31 -24 -54 -52z"/>
<path d="M3027 7202 c-16 -16 -51 -42 -79 -57 -42 -23 -54 -26 -74 -16 -42 19
-115 13 -172 -14 -47 -22 -56 -31 -77 -79 -23 -52 -27 -56 -77 -70 -29 -8 -67
-17 -85 -21 l-32 -6 14 -46 c8 -25 27 -62 43 -81 31 -40 59 -55 49 -28 -5 12
1 19 19 26 22 9 25 14 19 40 -10 46 16 49 67 8 24 -19 71 -54 106 -78 53 -37
66 -42 80 -32 9 7 27 16 40 22 12 5 22 16 22 25 0 8 7 15 15 15 16 0 38 -34
28 -44 -3 -3 2 -6 13 -6 18 -1 18 -1 1 -11 -14 -8 -15 -14 -7 -24 8 -10 7 -16
-6 -23 -14 -8 -9 -11 24 -17 24 -4 42 -12 42 -20 0 -7 7 -16 16 -19 13 -5 15
-1 12 19 -5 24 -4 25 13 9 10 -9 16 -20 14 -25 -3 -4 -1 -10 5 -14 6 -4 8 -11
5 -16 -4 -5 1 -9 9 -9 22 0 19 9 -16 70 -42 74 -46 93 -43 245 2 142 3 150 22
153 21 3 43 -21 73 -81 36 -71 52 30 19 119 -12 31 -33 70 -48 86 l-26 29 -28
-29z"/>
<path d="M6949 7154 c-39 -40 -137 -92 -191 -100 -23 -4 -47 -1 -67 9 -17 9
-31 12 -31 8 0 -22 45 -61 94 -81 61 -24 69 -22 139 34 32 26 107 137 107 159
0 15 -18 5 -51 -29z"/>
<path d="M2259 7147 c29 -76 105 -160 157 -173 46 -12 144 39 144 74 0 13 -2
13 -14 -3 -33 -45 -155 -4 -248 83 -43 40 -48 42 -39 19z"/>
<path d="M5820 6592 c0 -6 9 -14 20 -17 23 -7 27 -40 7 -52 -8 -4 -59 -64
-115 -134 -64 -79 -123 -141 -161 -169 -43 -32 -59 -49 -55 -60 4 -8 9 -25 11
-37 l5 -21 34 23 c42 28 122 49 171 43 32 -4 42 1 84 41 28 27 82 103 129 181
45 74 93 146 106 161 13 14 24 29 24 33 0 4 -39 6 -87 5 -49 -2 -107 1 -130 5
-28 5 -43 4 -43 -2z"/>
<path d="M3117 6537 c16 -18 44 -68 63 -112 78 -176 92 -198 140 -222 25 -12
55 -22 67 -22 30 -1 114 -39 140 -63 19 -17 25 -19 38 -8 16 13 21 40 7 40
-21 0 -129 123 -170 194 -26 45 -67 100 -91 124 -43 42 -49 71 -16 73 34 3 38
4 42 15 2 6 -40 11 -123 12 l-126 2 29 -33z"/>
<path d="M6103 6556 c3 -8 -1 -17 -9 -20 -8 -3 -14 -12 -14 -21 0 -8 -4 -15
-8 -15 -5 0 -17 -18 -27 -40 -10 -22 -22 -37 -27 -34 -10 6 -38 -14 -38 -27 0
-5 5 -9 10 -9 6 0 10 7 10 15 0 8 5 15 10 15 6 0 8 -12 5 -27 -5 -23 -4 -25 5
-10 6 9 18 17 25 17 8 0 15 5 15 12 0 6 3 8 7 5 3 -4 12 -2 20 4 27 23 13 -11
-36 -83 -68 -102 -101 -171 -101 -212 0 -19 11 -58 25 -88 15 -32 25 -71 25
-99 l0 -46 31 6 c29 6 33 11 48 73 9 36 33 92 53 124 49 81 72 130 92 194 10
30 19 61 22 69 3 11 9 10 30 -4 47 -30 46 -1 -1 45 -25 24 -45 49 -45 55 0 13
-59 85 -70 85 -4 0 -11 -15 -14 -32 -4 -18 -13 -42 -21 -52 -15 -20 -15 -20
-15 0 0 11 7 30 16 42 14 21 14 25 0 47 -18 27 -31 33 -23 11z"/>
<path d="M2939 6465 c-19 -27 -54 -69 -77 -91 -29 -28 -40 -44 -32 -49 7 -4
18 2 26 14 29 40 64 15 64 -47 0 -16 20 -69 44 -118 62 -127 76 -174 85 -281
1 -7 7 -13 15 -13 9 0 15 20 18 68 3 39 15 88 28 116 32 72 23 115 -59 281
-38 77 -71 147 -74 155 -2 10 -16 -2 -38 -35z"/>
<path d="M4505 6338 c-132 -142 -389 -337 -645 -490 -107 -64 -213 -124 -235
-133 -22 -10 -74 -32 -115 -51 -69 -30 -314 -120 -455 -166 -225 -73 -538
-124 -685 -111 -51 4 -68 2 -78 -9 -23 -29 -42 -262 -42 -552 -1 -155 2 -311
6 -346 5 -46 4 -61 -5 -56 -7 5 -11 0 -11 -13 0 -12 -5 -21 -11 -21 -5 0 -7 4
-4 10 3 5 -1 22 -10 37 l-15 28 5 -35 c16 -116 63 -339 76 -360 6 -10 7 -5 3
15 -3 17 -8 80 -11 140 -5 133 10 124 31 -18 8 -52 18 -112 22 -132 6 -34 5
-37 -14 -31 -11 4 -23 2 -27 -4 -4 -6 6 -10 24 -10 34 0 36 -5 46 -95 9 -83
25 -141 78 -280 56 -148 166 -416 177 -430 9 -12 48 -83 105 -190 74 -139 195
-340 278 -463 46 -68 304 -338 381 -399 52 -41 57 -48 40 -55 -16 -7 -15 -8 4
-4 17 3 39 -9 82 -45 32 -26 65 -58 73 -69 7 -11 17 -17 20 -13 4 3 7 1 7 -5
0 -7 7 -12 15 -12 8 0 15 -4 15 -10 0 -5 24 -22 53 -36 59 -30 170 -103 175
-116 2 -4 9 -8 15 -8 7 0 33 -16 60 -36 41 -30 46 -37 37 -54 -15 -27 -7 -37
30 -38 17 0 28 4 25 9 -4 5 -13 9 -21 9 -8 0 -14 7 -14 15 0 8 5 15 11 15 5 0
7 -5 4 -10 -4 -6 7 -13 24 -16 18 -4 28 -11 24 -17 -4 -6 0 -8 10 -4 10 3 17
2 17 -3 0 -6 -4 -10 -10 -10 -5 0 -10 -6 -10 -14 0 -8 -7 -17 -16 -20 -8 -3
-12 -11 -9 -17 5 -7 13 -4 26 7 23 21 37 11 18 -12 -13 -16 -11 -17 14 -10 21
5 36 1 57 -14 16 -12 29 -24 29 -28 -3 -21 16 -52 32 -52 21 0 33 15 23 31 -4
8 -9 7 -15 -2 -4 -7 -11 -10 -15 -6 -4 3 -1 13 5 21 7 8 10 20 6 25 -3 7 0 8
9 5 9 -3 16 -1 16 5 0 6 -5 11 -12 11 -6 0 -9 2 -6 5 6 6 94 -49 113 -69 6 -6
22 -17 38 -25 30 -16 36 -31 11 -31 -8 0 -12 5 -8 11 4 7 0 10 -10 7 -10 -1
-16 -7 -16 -12 2 -13 -21 -26 -47 -26 -13 0 -22 -5 -20 -11 1 -6 -4 -14 -10
-16 -7 -3 -13 0 -13 6 0 6 -5 11 -11 11 -6 0 -8 -7 -5 -16 4 -11 -1 -18 -14
-21 -27 -7 -25 -21 3 -19 12 1 28 -4 35 -12 16 -15 8 -47 -9 -36 -8 5 -10 -1
-7 -20 3 -16 0 -29 -7 -34 -8 -4 -18 -46 -24 -102 -6 -52 -13 -113 -16 -135
-3 -22 -9 -98 -15 -170 -5 -71 -13 -145 -16 -163 -4 -22 -3 -32 6 -32 9 0 8
-5 -3 -18 -9 -10 -22 -53 -29 -95 l-12 -78 45 -45 c24 -26 98 -95 164 -155
105 -96 124 -109 151 -107 24 2 70 36 193 143 l162 140 -6 60 c-6 66 -22 344
-32 558 -3 76 -9 133 -13 126 -12 -18 -27 -3 -27 26 0 15 5 25 13 25 12 0 12
4 2 20 -7 11 -18 20 -24 20 -17 0 -27 31 -14 44 5 5 13 6 17 2 4 -4 1 -11 -7
-16 -13 -8 -12 -10 3 -10 9 0 17 -4 17 -10 0 -5 8 -10 17 -10 9 0 14 3 10 6
-3 3 6 17 21 31 23 20 23 22 5 14 -16 -8 -24 -8 -29 1 -4 6 -3 8 3 5 10 -6 36
20 41 44 5 21 24 40 50 50 13 5 20 13 17 19 -3 5 2 10 12 10 15 0 16 2 3 11
-12 8 -9 9 12 5 14 -3 32 -8 40 -11 8 -3 20 6 30 23 9 15 26 28 37 29 12 1 19
-2 16 -8 -9 -14 11 -11 24 4 7 9 7 17 0 24 -7 7 -3 9 14 6 18 -4 26 0 30 17 5
18 3 19 -10 9 -12 -11 -17 -10 -24 4 -8 14 -13 15 -30 4 -14 -8 -22 -9 -27 -1
-11 17 -50 23 -61 10 -6 -7 -26 -18 -46 -26 -19 -7 -35 -17 -35 -22 0 -4 -6
-8 -13 -8 -7 0 -23 -9 -35 -20 -27 -25 -27 -25 -29 8 -2 26 4 30 90 65 51 20
98 37 105 37 6 0 12 5 12 10 0 6 7 10 16 10 8 0 22 7 31 15 8 9 28 19 44 22
16 3 29 9 29 13 0 4 30 24 68 43 37 20 80 45 97 56 27 18 32 19 52 6 22 -15
58 -22 37 -7 -22 15 -24 41 -3 47 10 4 19 11 19 16 0 5 4 9 8 9 4 0 8 -9 8
-20 0 -11 -4 -20 -8 -20 -4 0 -8 -7 -8 -15 0 -8 5 -15 10 -15 6 0 10 7 10 16
0 9 6 14 13 11 7 -3 22 2 32 10 20 14 20 14 0 30 -20 15 -20 15 2 9 16 -5 23
-2 28 15 5 14 2 25 -6 30 -13 8 -5 13 14 10 13 -2 38 27 26 31 -5 2 21 28 58
58 71 57 473 455 473 469 0 4 9 16 19 25 11 10 40 48 65 86 39 57 50 68 71 65
33 -3 48 16 27 35 -14 13 -15 12 -8 -5 6 -16 5 -18 -6 -7 -10 10 -9 19 6 47
11 19 25 35 32 35 7 0 14 10 16 23 2 15 10 22 25 21 18 0 20 3 12 22 -5 15 -4
26 3 30 6 4 8 3 5 -3 -4 -6 0 -13 7 -16 12 -5 13 -1 4 24 -8 24 -6 35 11 61
12 18 27 45 33 61 7 15 16 27 20 27 4 0 8 11 8 24 0 14 4 27 9 30 5 3 12 18
16 33 3 16 24 65 46 111 21 45 39 86 39 91 0 13 83 235 155 411 34 85 65 173
69 195 4 21 14 52 22 67 8 15 14 41 14 58 0 16 3 30 8 30 4 0 8 80 10 178 1
97 9 251 18 342 8 91 17 208 21 260 7 111 -12 295 -33 328 -8 12 -12 27 -9 32
3 6 2 10 -3 10 -5 0 -15 27 -23 60 -10 46 -17 60 -31 60 -21 0 -23 -11 -6 -28
18 -18 -4 -15 -31 5 l-24 16 24 10 c46 18 69 15 75 -13 3 -14 10 -34 15 -45 7
-15 8 -16 4 -2 -3 10 -5 36 -5 56 l0 38 -133 7 c-74 4 -174 15 -223 26 -244
52 -329 72 -444 105 -116 33 -272 89 -295 105 -5 4 -28 13 -50 20 -22 7 -51
20 -64 28 -22 15 -25 14 -37 -3 -25 -33 -16 -51 36 -75 27 -13 49 -26 48 -29
-2 -21 10 -33 80 -79 42 -28 91 -63 107 -77 74 -65 107 -96 212 -198 l111
-108 31 15 c16 9 39 16 51 16 11 0 20 3 20 8 0 13 68 45 84 39 9 -4 16 -14 16
-23 0 -10 -6 -14 -14 -11 -7 3 -18 1 -24 -5 -11 -11 -4 -48 10 -48 5 0 6 9 3
20 -6 20 9 28 20 10 3 -5 15 -10 26 -10 10 0 19 -7 19 -15 0 -8 -5 -15 -12
-15 -9 0 -9 -3 0 -12 16 -16 15 -28 -3 -28 -17 0 -20 -16 -6 -24 19 -12 38 5
35 30 -2 20 1 24 14 19 10 -4 22 2 32 13 8 11 26 22 40 25 21 5 26 3 26 -13 0
-11 -6 -20 -12 -20 -7 0 -14 -7 -18 -15 -7 -19 47 -14 72 7 17 15 83 41 88 35
2 -2 -79 -45 -181 -96 -115 -59 -182 -98 -178 -105 3 -6 14 -23 24 -37 76
-109 180 -393 200 -546 16 -119 22 -133 58 -133 16 0 32 -6 35 -12 5 -10 7
-10 12 0 10 22 34 13 34 -12 0 -14 5 -28 10 -31 6 -3 10 -13 10 -21 0 -10 -12
-14 -45 -14 -33 0 -45 4 -45 15 0 8 7 15 15 15 8 0 15 5 15 10 0 6 -11 10 -24
10 -18 0 -27 -8 -35 -30 -9 -28 -13 -30 -65 -30 -42 0 -56 4 -56 14 0 8 -10
17 -22 19 l-23 4 23 2 c17 1 22 6 20 19 -4 18 -38 22 -72 7 -16 -7 -18 -5 -13
8 3 8 1 18 -6 20 -22 8 1 18 42 19 l42 0 -6 62 c-14 135 -76 325 -170 519 -28
56 -43 77 -57 77 -11 0 -17 4 -14 9 10 15 -4 39 -26 44 -11 3 -17 10 -13 16 4
7 -3 11 -17 12 -20 0 -21 1 -6 12 15 10 15 13 -5 41 -12 17 -29 37 -39 44 -10
7 -18 18 -18 24 0 17 -73 94 -151 160 -41 34 -94 81 -119 104 -53 49 -173 134
-192 134 -7 0 -34 -23 -60 -52 -38 -43 -47 -49 -45 -30 1 12 6 22 12 22 5 0 3
5 -5 10 -13 9 -13 11 0 21 12 8 9 9 -10 3 -14 -4 -26 -11 -28 -15 -5 -13 -22
-11 -22 2 0 17 -23 34 -49 37 -17 2 -22 -2 -17 -13 3 -10 2 -13 -5 -10 -6 4
-13 -2 -16 -14 -4 -18 -7 -18 -20 -6 -13 13 -13 17 1 31 9 8 16 21 16 27 -1 7
-6 5 -13 -4 -7 -9 -18 -14 -24 -12 -8 3 -13 -4 -13 -15 0 -11 -7 -25 -15 -32
-8 -7 -15 -18 -15 -24 -1 -15 -90 -114 -90 -100 0 6 9 19 20 29 11 10 20 24
20 32 0 8 12 31 27 50 17 22 22 34 13 31 -8 -2 -40 -40 -71 -84 -126 -175
-238 -264 -338 -264 -38 0 -49 5 -82 39 -20 22 -48 66 -61 98 -21 53 -23 71
-22 225 1 92 5 179 8 193 9 36 29 26 41 -21 12 -49 52 -89 71 -73 11 9 14 7
14 -7 0 -16 2 -16 16 4 20 29 32 28 36 -5 l4 -28 13 26 c11 23 16 25 37 15 13
-6 28 -22 32 -36 9 -25 9 -24 22 13 15 39 36 53 25 16 -6 -19 -4 -21 19 -15
17 4 26 2 26 -5 0 -8 7 -6 18 4 18 17 62 13 62 -5 0 -6 6 -5 15 2 16 14 35 6
35 -16 0 -22 15 -17 30 11 13 24 40 35 40 15 0 -6 9 -6 24 0 34 13 39 2 15
-37 -12 -19 -19 -37 -16 -40 7 -7 79 105 81 126 2 22 -181 93 -354 136 -142
36 -225 46 -443 51 -214 5 -302 -3 -462 -41 -186 -44 -258 -72 -545 -209 -41
-19 -114 -72 -242 -177 -148 -120 -209 -181 -289 -286 -41 -54 -76 -100 -80
-103 -47 -43 -165 -276 -220 -434 -43 -127 -50 -154 -77 -341 l-18 -120 -48
-3 -49 -3 7 130 c6 132 11 153 83 375 30 96 79 200 147 319 28 49 56 98 63
110 14 24 68 88 185 218 90 99 168 171 273 251 34 25 67 54 75 63 8 9 40 30
72 46 41 21 56 33 52 44 -4 9 1 18 12 22 11 3 23 11 27 17 6 8 10 7 14 -1 8
-22 21 -14 16 8 -5 19 -3 21 20 17 15 -3 27 -2 27 1 0 3 23 14 50 24 28 10 50
23 50 30 0 9 2 9 8 -1 6 -9 24 -7 80 12 153 52 362 105 477 120 185 25 195 27
189 37 -3 5 -7 87 -10 183 l-5 173 69 73 68 73 62 -59 c56 -53 62 -62 61 -99
0 -37 -1 -38 -11 -15 -7 16 -12 20 -15 12 -3 -8 0 -25 7 -37 10 -19 10 -30 0
-55 -7 -17 -10 -33 -6 -37 3 -3 6 2 6 12 0 10 3 15 7 12 3 -4 5 -65 4 -136
l-2 -129 58 -7 c32 -4 117 -18 190 -31 123 -22 185 -41 402 -124 68 -26 85
-30 92 -19 26 45 35 52 57 40 19 -10 20 -15 11 -32 -13 -25 1 -45 25 -36 20 8
21 27 1 27 -9 0 -12 6 -8 16 4 11 9 12 16 5 6 -6 16 -11 21 -11 19 0 -9 19
-99 66 -210 109 -564 354 -666 461 -31 32 -71 70 -90 84 -19 15 -53 45 -75 68
-23 22 -44 41 -47 41 -2 0 -35 -33 -72 -72z m-67 -733 c15 -60 17 -331 2 -369
-5 -14 -8 -31 -6 -38 1 -7 1 -10 -1 -7 -2 4 -18 -6 -36 -23 -56 -51 -119 -88
-151 -88 -35 0 -113 43 -168 92 -20 18 -69 85 -108 148 -40 63 -78 122 -85
130 -7 8 -25 36 -39 61 -22 41 -24 48 -10 59 12 11 19 9 39 -10 13 -12 28 -20
33 -16 5 3 24 -8 43 -23 18 -16 39 -27 45 -24 6 2 21 -8 32 -22 12 -15 26 -24
31 -21 5 4 12 2 16 -4 4 -6 10 -8 15 -5 5 3 15 -1 23 -9 8 -8 18 -12 21 -8 4
3 11 0 16 -8 7 -11 11 -11 24 -1 13 11 17 11 22 -3 7 -19 34 -22 34 -4 0 9 3
9 12 0 8 -8 18 -7 39 5 22 13 31 29 40 71 8 39 16 56 30 59 15 4 19 14 19 47
0 81 48 89 68 11z m-857 -172 c27 -20 49 -41 49 -45 0 -4 28 -45 63 -91 75
-100 82 -112 119 -202 21 -50 27 -79 23 -102 -3 -18 -10 -33 -16 -33 -5 0 -43
25 -84 55 -79 59 -89 57 -59 -13 9 -20 25 -59 34 -85 l19 -48 -27 -10 c-35
-14 -136 -5 -186 16 -32 14 -110 62 -256 158 -61 40 -75 56 -63 68 9 9 15 9
27 0 7 -6 22 -14 32 -16 11 -2 30 -7 44 -11 24 -7 24 -7 8 13 -10 11 -18 22
-18 25 0 2 25 4 55 4 38 -1 55 3 55 12 0 6 7 12 16 12 8 0 12 5 9 10 -3 6 -2
10 4 10 5 0 13 -5 17 -11 4 -7 9 -7 13 -1 3 5 21 17 39 26 18 9 36 24 39 32 3
7 15 14 28 14 21 0 22 3 19 53 -6 65 -23 137 -39 157 -40 50 -27 52 36 3z
m1962 -95 c-44 -48 -54 -88 -23 -88 10 0 24 -9 30 -20 6 -12 16 -17 26 -13 10
4 17 -1 21 -15 2 -11 14 -23 26 -26 17 -4 19 -8 9 -18 -17 -17 -15 -29 4 -21
13 5 15 2 9 -16 -6 -20 -4 -22 14 -16 27 8 27 -3 -1 -32 -20 -22 -13 -34 8
-13 7 7 9 0 8 -21 -2 -31 -2 -31 39 -26 25 4 36 2 27 -3 -8 -5 -11 -12 -7 -17
4 -4 17 -2 27 5 11 7 30 18 43 25 12 6 30 18 40 26 15 13 17 11 17 -14 0 -20
-12 -39 -40 -67 -23 -21 -47 -38 -54 -38 -8 0 -19 -7 -26 -16 -8 -8 -41 -29
-74 -46 -56 -28 -70 -31 -161 -31 -57 -1 -109 4 -121 10 -20 12 -20 13 23 103
24 51 42 94 39 97 -2 3 -38 -18 -80 -46 -45 -31 -81 -48 -90 -45 -11 4 -16 1
-16 -10 0 -9 -3 -16 -7 -16 -18 -1 -94 -80 -96 -98 0 -12 -6 -18 -14 -15 -7 3
-13 1 -13 -5 0 -5 -8 -12 -17 -16 -10 -3 -34 -18 -54 -33 -20 -16 -87 -64
-148 -108 -61 -44 -110 -82 -110 -85 0 -3 33 -30 74 -59 77 -56 92 -80 53 -82
-18 -1 -19 -2 -5 -6 10 -3 25 1 33 8 8 6 17 9 20 6 15 -14 -73 -75 -140 -98
-46 -16 -48 -18 -20 -18 37 -1 117 39 160 80 l30 29 58 -40 c33 -23 62 -38 67
-33 4 4 35 67 67 138 110 240 151 315 170 308 25 -9 42 -24 37 -32 -7 -12 92
-104 103 -97 6 3 13 2 17 -4 6 -9 46 -7 88 6 17 5 17 3 7 -16 -9 -16 -9 -25
-1 -33 8 -8 11 -8 11 1 0 7 6 12 14 12 8 0 16 6 19 13 2 6 8 9 11 5 4 -3 -2
-16 -13 -27 -22 -22 -27 -41 -11 -41 6 0 10 3 10 8 0 4 10 13 23 21 21 13 21
13 6 -5 -9 -10 -27 -42 -40 -70 -15 -31 -30 -49 -37 -46 -10 3 -11 0 -4 -14 6
-11 17 -39 26 -64 18 -51 72 -113 119 -136 26 -13 22 -6 -24 38 -99 93 -109
144 -49 239 32 48 102 109 127 109 8 0 60 22 116 49 113 54 172 75 185 67 23
-14 -2 -66 -54 -112 -30 -27 -54 -56 -54 -66 0 -10 -7 -18 -15 -18 -12 0 -13
-4 -3 -26 10 -21 9 -28 -2 -38 -19 -14 -22 -46 -4 -46 8 0 14 -9 14 -20 0 -11
5 -20 10 -20 6 0 10 -7 10 -15 0 -8 4 -15 9 -15 4 0 22 -13 39 -30 18 -16 41
-30 53 -30 14 0 19 -5 16 -14 -3 -8 11 -25 34 -42 21 -16 39 -32 39 -36 0 -4
23 -10 50 -14 80 -11 58 -24 -42 -25 -89 -1 -236 -15 -191 -18 15 -1 20 -6 16
-19 -4 -15 -14 -18 -57 -17 -29 1 -57 5 -63 8 -6 4 -23 1 -38 -7 -16 -9 -22
-17 -15 -21 6 -4 17 -1 25 5 8 7 15 10 15 7 0 -3 3 -13 6 -22 6 -14 2 -16 -21
-13 -16 2 -30 -2 -32 -9 -3 -9 7 -13 31 -13 20 0 35 3 35 8 -4 22 3 32 21 32
11 0 20 -4 20 -10 0 -5 -5 -10 -11 -10 -5 0 -8 -4 -5 -9 8 -12 58 -11 73 1 20
16 126 15 131 -1 4 -11 -8 -12 -63 -6 -48 5 -65 4 -61 -4 5 -8 -36 -11 -138
-11 -91 0 -146 4 -146 10 0 6 -4 10 -10 10 -5 0 -9 -6 -7 -12 1 -9 -17 -15
-53 -19 l-55 -6 48 -1 c42 -2 49 -5 58 -29 5 -15 8 -37 5 -49 -7 -25 16 -49
39 -41 8 4 -6 -13 -30 -37 -25 -23 -45 -51 -45 -61 0 -13 9 -7 32 23 19 25 55
53 94 73 l63 32 128 -12 c70 -6 163 -13 206 -17 80 -6 107 -24 36 -24 -36 0
-75 -13 -89 -29 -3 -3 -17 -12 -32 -20 -16 -8 -28 -19 -28 -24 0 -5 -12 -18
-26 -29 -14 -11 -23 -26 -20 -33 2 -8 -2 -16 -10 -19 -9 -3 -12 -10 -9 -16 3
-5 3 -10 -2 -10 -4 0 -9 -11 -9 -25 -1 -13 -9 -31 -17 -40 -9 -9 -14 -22 -11
-30 4 -8 1 -15 -5 -15 -8 0 -9 -5 -1 -19 14 -26 13 -28 -11 -34 -26 -7 -16
-27 14 -27 12 0 32 -11 45 -25 l23 -24 -26 -7 -27 -7 29 -18 c15 -10 22 -19
16 -19 -7 0 -13 -4 -13 -10 0 -5 4 -10 9 -10 5 0 22 -5 38 -11 l28 -12 -25 -7
-25 -6 30 -17 c65 -35 -6 -15 -91 27 -206 100 -309 202 -324 321 -7 49 -7 49
-15 18 -4 -18 -14 -38 -21 -44 -8 -6 -14 -18 -14 -27 0 -33 -120 -243 -155
-272 -14 -12 -19 -10 -40 16 -14 16 -24 32 -25 37 0 4 -6 7 -12 7 -7 1 -42 37
-78 82 -36 44 -101 124 -144 177 -44 53 -81 98 -83 100 -1 2 -28 -20 -59 -49
l-56 -53 -20 21 c-18 18 -19 24 -8 57 17 51 6 145 -24 211 -41 89 -154 195
-192 180 -13 -5 -14 -9 -4 -21 7 -8 15 -13 19 -11 4 3 12 -4 19 -15 10 -16 10
-21 -3 -26 -9 -3 -21 -1 -28 6 -6 6 -21 11 -33 11 -12 0 -25 6 -27 13 -4 9 -8
9 -14 0 -4 -6 -22 -15 -38 -19 -27 -6 -28 -5 -17 8 8 10 9 19 3 22 -5 4 -12 2
-16 -4 -4 -6 -11 -7 -17 -4 -5 4 -3 -5 6 -19 15 -22 15 -25 1 -30 -8 -4 -15
-2 -15 3 0 6 -14 10 -31 10 -17 0 -28 -4 -24 -10 3 -5 -1 -10 -9 -10 -9 0 -16
5 -16 11 0 5 -5 7 -11 3 -8 -5 -8 -9 1 -14 19 -12 2 -30 -23 -26 -25 4 -25 33
-1 52 8 6 12 19 8 28 -7 18 -20 21 -29 6 -4 -6 -10 -8 -15 -5 -5 3 -17 1 -27
-4 -10 -5 -30 -12 -45 -15 -15 -4 -30 -15 -33 -26 -3 -11 -10 -20 -15 -20 -4
0 -6 -9 -3 -20 4 -14 14 -20 34 -20 16 0 29 -4 29 -10 0 -5 -5 -10 -11 -10 -6
0 -9 -7 -5 -15 3 -9 0 -15 -9 -15 -8 0 -15 -4 -15 -10 0 -5 9 -10 20 -10 11 0
20 5 20 11 0 6 9 8 21 4 16 -5 19 -4 14 5 -5 8 -4 11 3 6 15 -9 3 -36 -17 -36
-13 -1 -13 -2 3 -12 15 -8 22 -7 31 6 7 9 18 16 26 15 10 0 11 -2 2 -6 -19 -7
-16 -21 5 -26 13 -3 10 -6 -10 -11 -16 -5 -28 -12 -28 -17 0 -5 -18 -9 -41 -9
-24 0 -38 -4 -34 -10 3 -5 -1 -10 -10 -10 -9 0 -14 4 -10 9 9 15 -13 23 -34
11 -13 -7 -22 -7 -26 0 -3 5 -1 10 5 10 7 0 5 7 -5 16 -12 12 -19 13 -29 5
-10 -9 -17 -7 -27 6 -12 15 -12 16 4 10 9 -3 17 -4 17 -1 0 11 -36 42 -57 48
-14 4 -23 15 -23 27 0 16 7 19 45 19 25 0 45 4 45 9 0 15 -30 21 -49 9 -25
-15 -48 -4 -54 24 -2 13 -5 5 -6 -19 -2 -82 45 -147 139 -191 44 -20 71 -26
135 -26 96 -1 124 11 227 97 64 53 78 61 123 65 43 3 53 1 74 -21 13 -14 28
-24 35 -23 6 2 8 1 4 -1 -4 -3 -3 -16 3 -29 14 -38 11 -71 -11 -113 -23 -47
-53 -72 -129 -107 -163 -78 -287 -72 -470 21 -78 39 -162 121 -190 185 -20 46
-28 104 -18 130 3 8 7 36 10 61 6 60 61 179 101 217 45 44 141 99 186 107 63
11 146 -12 282 -75 71 -33 137 -60 146 -59 9 0 1 6 -19 14 -19 7 -66 29 -103
50 -71 39 -176 79 -239 90 l-37 7 27 24 c23 20 25 24 10 24 -10 0 -15 5 -12
10 3 6 2 10 -4 10 -16 0 -98 -38 -105 -48 -8 -14 20 -23 52 -17 19 4 17 1 -9
-9 -52 -20 -121 -56 -144 -75 -13 -10 -11 -5 5 13 14 16 39 35 55 42 26 11 27
13 8 14 -12 0 -27 9 -33 20 -9 16 -5 23 25 47 19 15 35 31 35 35 0 4 -78 70
-172 146 -95 77 -182 149 -192 161 -18 20 -18 22 -1 41 10 11 24 20 30 20 7 0
18 7 26 16 29 36 157 87 294 119 93 21 108 23 260 31 102 5 149 3 219 -10 49
-10 106 -18 127 -18 54 -1 136 41 209 107 89 78 120 100 120 83 0 -8 -9 -24
-20 -36 -11 -12 -20 -26 -20 -32 0 -16 28 -11 40 8 8 14 9 12 4 -10 -5 -22 -2
-28 10 -28 9 0 16 -8 16 -20 0 -11 3 -20 6 -20 14 0 95 92 97 109 0 11 5 17 9
14 13 -7 -1 -41 -33 -86 -29 -40 -38 -63 -19 -52 13 8 13 4 -5 -38 -24 -59
-16 -77 10 -21 51 114 212 314 252 314 14 0 14 -3 -4 -22z m-2399 -523 c118
-62 156 -88 219 -149 78 -75 97 -112 97 -184 0 -105 -88 -147 -330 -159 -86
-4 -149 -2 -170 5 -19 6 -65 13 -103 17 -37 4 -65 11 -62 16 4 5 15 9 26 9 10
0 18 5 17 11 -3 13 93 47 137 49 l30 1 -25 15 c-24 14 -23 15 30 10 51 -4 53
-4 30 9 -22 13 -23 14 -5 15 18 1 17 2 -4 11 l-23 9 27 22 c20 16 24 23 13 29
-9 6 -10 11 -2 17 19 12 21 37 5 50 -14 11 -10 12 21 10 42 -3 57 15 16 20
-35 4 -60 32 -29 32 27 0 27 17 1 25 -11 3 -20 11 -20 16 0 8 28 6 68 -7 6 -2
12 0 12 4 0 4 -24 18 -52 32 -44 20 -49 25 -30 28 l23 3 -25 20 c-14 11 -23
26 -20 33 3 7 -7 18 -21 24 -24 11 -27 32 -4 32 6 0 75 -34 153 -75z m653 -77
c17 -29 66 -128 108 -220 42 -92 82 -174 89 -183 9 -13 18 -9 63 30 52 45 77
50 85 17 7 -24 -1 -42 -18 -42 -8 0 -14 -5 -14 -11 0 -6 -16 -36 -35 -67 -35
-59 -80 -203 -65 -212 4 -3 11 -31 15 -63 5 -38 17 -72 36 -100 16 -23 29 -46
29 -52 0 -5 -9 3 -19 18 -12 20 -21 25 -26 17 -14 -22 -27 7 -31 66 -5 73 -24
98 -24 31 0 -26 9 -70 20 -99 14 -38 17 -55 9 -65 -22 -26 -49 -14 -81 38
l-31 51 -105 -112 c-104 -110 -265 -260 -280 -260 -11 0 -66 89 -91 148 -25
61 -65 310 -57 360 2 17 1 32 -3 32 -9 0 4 90 25 175 22 87 89 239 139 315 45
68 116 150 131 150 5 1 25 21 44 45 19 25 40 45 45 45 6 0 25 -24 42 -52z
m2539 -565 c4 -15 14 -33 23 -40 13 -10 10 -12 -21 -13 -24 0 -37 -4 -35 -12
1 -6 -6 -14 -15 -16 -12 -2 -16 1 -13 11 3 7 -2 20 -11 28 -13 11 -18 11 -21
2 -3 -7 -14 -13 -26 -13 -22 -1 -22 -1 -2 -16 19 -14 19 -14 -5 -11 -17 3 -26
13 -32 34 -8 33 -35 50 -51 34 -11 -11 -35 -3 -60 20 -18 16 -11 17 122 18
l140 2 7 -28z m-3251 -69 c126 -19 165 -31 165 -50 0 -8 6 -14 13 -14 36 -1
97 -83 97 -130 0 -98 -71 -170 -255 -260 -187 -90 -209 -98 -229 -77 -10 10
-12 18 -6 22 6 4 9 14 8 23 -2 10 11 24 35 37 21 11 35 26 32 32 -2 7 8 21 23
30 15 9 29 18 31 20 3 2 -4 9 -14 17 -17 12 -17 13 7 19 14 4 28 16 31 28 5
19 2 21 -24 17 -28 -4 -39 5 -19 17 6 3 10 15 10 26 0 11 5 17 10 14 6 -3 10
-1 10 4 0 6 -12 11 -27 11 -27 1 -28 1 -8 16 19 15 18 16 -22 11 -40 -5 -58 5
-30 16 7 3 4 6 -6 6 -10 1 -15 6 -12 12 4 5 -3 18 -14 28 -20 17 -20 19 -4 26
17 6 17 7 -1 20 -16 13 -11 14 50 18 44 2 26 4 -53 5 -67 1 -128 5 -137 8 -19
7 -21 28 -3 46 21 20 211 21 342 2z m3467 -36 c15 -121 7 -280 -21 -408 -17
-76 -90 -258 -157 -390 -86 -170 -107 -207 -141 -245 -7 -7 -13 -17 -13 -21 0
-22 -262 -306 -329 -356 -31 -23 -72 -56 -91 -73 -71 -64 -168 -124 -285 -175
-177 -77 -300 -125 -390 -150 -44 -12 -110 -31 -147 -41 -78 -22 -96 -24 -94
-6 0 6 -3 13 -9 14 -5 1 -9 -7 -8 -17 2 -16 -10 -22 -75 -37 -72 -17 -103 -18
-312 -15 -62 1 -221 21 -340 42 -30 6 -100 17 -155 25 -121 18 -195 41 -195
61 0 10 -7 13 -22 9 -29 -7 -352 151 -387 189 -14 14 -31 26 -40 26 -17 0 -48
28 -248 227 -166 167 -269 298 -345 443 -30 58 -64 121 -75 140 -12 19 -24 58
-28 85 -3 28 -14 75 -24 105 -59 177 -78 278 -83 435 l-3 100 40 0 40 0 6
-165 c6 -158 8 -170 47 -285 22 -66 55 -154 73 -195 19 -42 41 -94 49 -115 28
-76 80 -168 152 -269 76 -106 272 -316 295 -316 7 0 13 -4 13 -10 0 -5 12 -16
28 -24 15 -8 47 -33 72 -55 25 -22 54 -43 65 -47 11 -3 31 -16 45 -29 63 -55
261 -150 420 -201 114 -36 303 -66 422 -68 79 -1 108 -4 108 -13 0 -7 5 -13
11 -13 5 0 8 4 4 9 -3 5 -1 12 4 15 12 8 42 -4 36 -14 -3 -4 2 -10 10 -13 10
-4 12 -1 8 10 -5 12 -1 14 17 8 31 -10 149 -7 240 5 111 15 397 86 520 129 69
23 201 93 260 137 60 44 140 87 140 74 0 -5 5 -10 10 -10 6 0 10 7 8 16 -2 11
11 24 37 38 100 52 280 223 356 337 103 155 130 198 152 240 13 26 36 62 50
80 36 48 101 190 126 279 37 127 50 226 45 345 -2 61 -4 119 -5 129 0 11 6 23
13 27 21 14 98 11 100 -3z m-2430 -406 c55 -77 315 -163 443 -147 63 7 229 86
276 131 29 28 57 31 66 8 4 -10 -9 -31 -37 -59 -50 -51 -66 -37 148 -129 173
-75 241 -107 301 -143 l44 -26 -53 -47 c-28 -25 -73 -57 -99 -70 -25 -13 -62
-34 -81 -47 -45 -29 -138 -61 -201 -69 -73 -10 -68 -21 9 -18 82 3 136 -10
184 -45 39 -29 118 -127 118 -148 0 -12 108 -182 151 -236 12 -15 18 -31 14
-35 -3 -4 -11 1 -17 11 -5 10 -22 33 -37 50 -16 18 -47 66 -70 108 -37 69 -45
77 -74 81 -28 3 -33 1 -32 -17 1 -14 8 -19 21 -17 17 2 17 1 3 -10 -9 -7 -16
-17 -16 -23 0 -5 -10 -14 -22 -20 -23 -11 -27 -20 -10 -31 6 -3 15 0 20 7 8
12 11 12 19 -1 13 -20 13 -43 -1 -34 -7 4 -7 -1 1 -16 8 -14 18 -20 31 -17 12
3 25 -3 37 -20 10 -13 26 -25 37 -27 13 -2 21 -12 22 -27 1 -13 0 -18 -3 -11
-3 6 -12 12 -20 12 -8 0 -14 5 -14 11 0 5 -5 7 -10 4 -6 -4 -8 -10 -5 -15 3
-5 1 -11 -5 -15 -5 -3 -10 -1 -10 6 0 7 -3 9 -7 6 -3 -4 -12 -2 -20 4 -10 9
-13 8 -13 -2 -1 -10 -5 -8 -15 5 -8 11 -30 21 -51 23 -44 5 -77 20 -69 34 12
18 -6 30 -21 14 -9 -8 -12 -20 -8 -26 5 -8 2 -9 -11 -2 -23 13 -65 4 -65 -14
0 -9 -6 -12 -19 -8 -10 3 -24 -1 -31 -10 -8 -10 -21 -13 -38 -8 -17 4 -23 2
-18 -5 5 -8 2 -10 -8 -6 -9 4 -18 -1 -22 -10 -3 -9 -15 -16 -25 -16 -10 0 -19
-7 -19 -15 0 -8 -7 -15 -16 -15 -10 0 -14 -6 -10 -15 3 -9 0 -15 -8 -15 -7 0
-16 -14 -20 -31 -8 -40 -48 -129 -59 -129 -4 0 -6 111 -4 248 l2 247 29 63
c29 62 66 100 131 135 46 25 2 21 -46 -4 -48 -24 -178 -35 -369 -31 -111 2
-135 6 -212 33 -78 28 -89 35 -105 67 -10 20 -25 38 -33 40 -12 4 -11 1 3 -15
9 -11 17 -25 17 -31 0 -15 -26 -16 -35 -2 -3 6 -15 10 -27 10 -31 0 -222 95
-263 131 -53 47 -128 148 -121 164 3 8 18 17 33 20 15 3 42 13 58 22 17 8 108
42 204 74 95 32 175 59 177 61 1 2 -11 25 -27 50 -17 26 -28 52 -24 58 10 16
43 12 57 -8z m-641 -178 c5 -3 -18 -37 -51 -76 -62 -74 -73 -95 -42 -83 37 14
197 52 205 48 4 -2 7 -28 7 -58 0 -44 -8 -69 -39 -129 -22 -41 -59 -102 -83
-134 -24 -33 -50 -70 -58 -83 -37 -54 -57 -73 -65 -59 -5 8 -4 11 2 7 6 -4 18
4 27 18 9 14 12 25 7 25 -6 0 -15 -8 -20 -17 -8 -14 -10 -15 -10 -3 0 8 13 30
29 49 27 31 28 35 13 47 -10 6 -23 10 -30 7 -7 -3 -13 0 -13 6 0 6 -3 10 -7
10 -22 -4 -31 3 -37 26 -4 14 -11 25 -17 25 -8 0 -7 5 1 15 16 20 6 19 -25 -1
-27 -18 -31 -13 -14 18 14 26 6 33 -21 18 -20 -11 -21 -10 -10 9 11 21 -3 31
-15 11 -3 -5 -17 -10 -31 -10 -13 0 -24 -4 -24 -10 0 -5 -4 -10 -9 -10 -6 0
-6 12 1 30 14 42 4 63 -27 57 -22 -4 -25 -2 -19 17 6 19 5 20 -11 6 -14 -11
-19 -12 -22 -3 -3 9 -10 10 -24 3 -15 -8 -17 -7 -13 5 8 20 -2 19 -40 -4 -29
-18 -116 -39 -116 -28 0 6 88 67 96 67 2 0 61 34 130 76 159 96 239 127 313
119 29 -3 58 -8 62 -11z m2211 -208 c122 -60 179 -94 228 -135 37 -31 50 -55
18 -35 -25 17 -78 32 -71 21 4 -6 0 -8 -9 -5 -8 4 -21 2 -29 -2 -8 -6 -26 -1
-49 13 l-35 22 18 -27 c23 -37 22 -40 -17 -33 -31 6 -33 5 -31 -19 3 -28 -13
-34 -33 -14 -7 7 -12 8 -12 2 0 -6 3 -14 7 -18 4 -3 7 -15 8 -25 1 -13 -4 -17
-19 -14 -17 4 -18 3 -6 -6 12 -9 13 -14 3 -31 -7 -11 -13 -25 -13 -31 0 -19
-28 -39 -47 -32 -13 4 -9 -3 11 -25 17 -18 24 -32 17 -32 -11 0 -11 -3 -1 -15
18 -21 3 -19 -31 5 -24 18 -27 26 -22 52 6 29 5 30 -16 18 -13 -6 -24 -10 -25
-8 -12 15 -96 127 -113 150 -44 62 -54 185 -16 207 11 6 35 0 78 -19 34 -15
76 -31 94 -35 l33 -7 -46 56 c-25 31 -46 62 -46 68 0 21 78 0 172 -46z m-1613
-245 c35 -6 91 -24 125 -40 61 -28 139 -92 134 -109 -2 -6 1 -9 5 -8 5 0 15
-10 23 -24 19 -33 16 -288 -3 -308 -12 -12 -18 -56 -13 -91 1 -12 0 -12 -12 0
-8 8 -14 39 -15 76 -1 65 -18 98 -46 87 -18 -7 -32 27 -16 37 9 5 8 11 -4 23
-15 15 -17 14 -31 -11 -8 -16 -15 -22 -16 -15 0 7 -7 20 -16 29 -14 14 -16 14
-30 -3 -13 -18 -14 -17 -8 11 l7 30 -22 -19 c-14 -13 -21 -15 -21 -6 0 10 -3
10 -15 0 -13 -10 -15 -9 -15 9 0 14 -4 20 -11 15 -8 -5 -10 2 -6 22 l5 29 -17
-23 c-9 -12 -24 -33 -33 -45 l-17 -22 6 25 c6 22 5 24 -10 11 -15 -12 -17 -11
-17 10 0 23 -1 23 -20 -6 l-21 -30 7 28 c4 17 2 27 -5 27 -6 0 -11 -7 -11 -16
0 -11 -5 -14 -16 -10 -9 4 -22 0 -28 -8 -6 -8 -29 -18 -50 -22 -34 -6 -38 -5
-33 10 5 13 2 15 -21 10 -15 -4 -28 -11 -30 -16 -2 -4 -8 -8 -14 -8 -5 0 0 16
11 36 39 66 14 51 -37 -22 -14 -20 -13 -15 4 34 4 11 1 10 -10 -5 -9 -12 -23
-20 -30 -17 -8 3 -17 1 -21 -5 -3 -6 -14 -11 -24 -11 -10 0 -41 -25 -68 -55
-50 -55 -73 -67 -73 -41 0 34 230 350 283 388 92 66 150 76 296 49z"/>
<path d="M4405 4369 c-63 -9 -101 -23 -144 -56 -38 -30 -75 -104 -68 -139 6
-32 -11 -31 -19 1 -3 14 -10 25 -15 25 -11 0 16 56 39 83 8 9 11 17 6 17 -5 0
-20 -17 -33 -37 -24 -38 -44 -93 -33 -92 23 4 33 -3 28 -16 -3 -8 0 -15 6 -15
9 0 9 -3 1 -11 -23 -23 -4 -44 41 -46 35 -1 43 2 42 15 0 9 -8 20 -16 24 -9 5
-4 7 15 6 17 -1 58 13 94 31 69 36 77 56 9 24 -68 -32 -106 -38 -128 -18 -14
12 -16 23 -10 49 25 111 146 165 294 131 71 -17 100 -14 50 5 -50 19 -107 26
-159 19z"/>
<path d="M5629 6100 c-43 -23 -109 -87 -109 -106 0 -18 -37 -37 -53 -27 -6 4
-19 8 -27 10 -31 4 28 -30 180 -104 195 -94 373 -163 387 -149 4 3 0 6 -9 6
-14 0 -125 53 -137 66 -3 4 3 4 15 0 22 -7 28 2 59 78 11 29 12 41 4 47 -8 5
-7 8 2 12 10 4 7 11 -11 26 l-25 20 -3 -37 c-2 -20 -8 -42 -14 -49 -7 -9 -7
-13 1 -13 6 0 11 -4 11 -10 0 -5 -14 -7 -32 -4 -25 4 -29 3 -18 -5 8 -5 11
-13 7 -17 -3 -4 -13 -1 -22 6 -14 11 -19 7 -16 -12 0 -5 -7 -8 -16 -8 -15 0
-16 -2 -3 -10 27 -17 0 -11 -40 10 -22 11 -40 26 -40 33 0 8 4 7 11 -3 8 -11
12 -12 16 -2 2 6 9 10 13 7 5 -3 14 4 20 16 9 16 8 24 -4 38 -14 15 -13 17 19
16 19 -1 35 3 35 9 0 8 3 7 8 0 10 -17 56 2 49 20 -6 15 18 30 33 21 4 -3 6 4
3 15 -3 11 -8 18 -12 15 -8 -4 -34 27 -34 41 -1 12 -35 37 -70 52 -43 18 -136
14 -178 -8z"/>
<path d="M5980 2256 c0 -8 253 -278 423 -450 93 -95 109 -116 87 -116 -5 0 -8
-13 -6 -30 2 -22 -1 -31 -15 -35 -15 -5 -17 -10 -9 -26 13 -23 2 -24 -28 -3
-27 19 -29 10 -2 -18 12 -14 16 -24 10 -28 -6 -4 -8 -14 -4 -23 9 -24 -2 -21
-42 9 -19 15 -34 21 -34 15 0 -6 4 -11 9 -11 5 0 12 -7 15 -16 4 -12 2 -15 -9
-10 -19 7 -19 -8 0 -24 9 -7 13 -15 10 -18 -3 -3 -21 10 -41 29 -31 29 -35 31
-29 12 3 -13 3 -23 0 -23 -10 0 -35 28 -35 39 0 6 -4 11 -10 11 -14 0 -12 -12
6 -35 14 -18 13 -20 -8 -26 -13 -3 -22 -11 -20 -18 2 -8 -4 -10 -18 -6 -15 5
-18 3 -14 -9 3 -9 10 -16 14 -16 4 0 11 -8 14 -17 7 -17 -4 -10 -52 35 -19 17
-24 15 -17 -7 4 -13 -1 -20 -17 -25 -14 -5 -18 -9 -10 -13 6 -2 12 -9 12 -13
0 -9 -52 -6 -69 4 -14 9 -24 -45 -10 -58 8 -8 9 -5 4 14 -8 25 -8 25 14 6 11
-11 21 -26 21 -35 0 -9 -3 -12 -8 -6 -4 6 -29 10 -57 10 -32 0 -55 5 -63 15
-11 13 -12 10 -7 -15 7 -30 6 -30 -19 8 -30 44 -33 55 -10 36 20 -16 64 -23
64 -10 0 6 -7 14 -16 19 -10 6 -14 14 -9 22 6 9 9 9 16 -1 6 -9 12 -10 17 -4
4 6 15 10 25 11 9 0 27 1 39 2 l22 2 -22 20 c-12 11 -32 20 -46 20 -14 0 -32
10 -41 23 -10 13 -19 17 -22 11 -2 -7 -14 -10 -26 -7 -21 4 -22 4 -3 -11 24
-19 17 -21 -17 -3 -20 10 -23 17 -15 31 14 26 1 32 -22 11 -21 -19 -28 -51 -8
-39 6 4 8 3 5 -4 -10 -15 3 -43 16 -35 6 3 7 1 3 -5 -7 -12 64 -162 86 -179
18 -14 447 -48 460 -35 12 12 90 419 86 449 -4 28 -568 623 -568 599z"/>
<path d="M2554 1759 l-30 -30 38 -196 c21 -108 40 -205 44 -215 5 -16 16 -18
117 -14 62 2 164 5 228 5 l116 1 42 68 c22 37 37 68 32 70 -5 2 -25 -4 -45
-12 -39 -16 -70 -12 -62 9 2 7 -9 25 -25 39 -33 30 -37 46 -11 47 10 0 12 2 4
6 -7 3 -24 -2 -37 -11 -29 -19 -52 -21 -58 -3 -3 7 -6 5 -6 -5 -1 -11 -6 -15
-16 -12 -15 6 -22 -11 -7 -19 4 -2 1 -2 -7 0 -7 2 -20 -2 -27 -8 -11 -9 -13
-5 -10 18 5 34 40 96 49 86 4 -3 7 1 7 11 0 15 -2 15 -23 1 -13 -8 -29 -26
-35 -40 -7 -15 -17 -22 -25 -19 -8 3 -17 -2 -20 -10 -3 -8 -16 -20 -28 -26
-13 -7 -19 -8 -15 -2 4 6 -5 12 -21 14 -25 3 -28 7 -25 36 2 21 -2 34 -11 38
-11 4 -14 17 -10 47 7 64 6 80 -6 109 -14 36 -55 47 -81 23 -21 -19 -28 -7 -8
13 7 7 10 12 7 12 -2 0 -18 -14 -35 -31z"/>
<path d="M4067 1573 c-33 -5 -45 -27 -27 -48 11 -13 6 -15 -31 -14 -24 0 -38
3 -31 6 18 7 15 21 -9 34 -17 9 -20 8 -14 -2 6 -9 0 -11 -24 -6 -18 4 -30 3
-27 -2 9 -15 200 -138 224 -146 13 -4 34 -16 45 -26 12 -11 29 -26 38 -34 21
-20 24 -19 27 10 1 14 -3 25 -8 25 -5 0 -6 -8 -3 -17 12 -32 -23 4 -37 38 -7
17 -16 26 -19 21 -4 -6 -15 -3 -29 8 -13 11 -18 21 -12 25 5 3 10 2 10 -4 0
-5 9 -9 20 -8 11 1 20 5 20 10 0 5 -7 7 -15 3 -14 -5 -20 6 -16 28 1 5 -4 5
-11 -1 -7 -5 -24 -10 -38 -11 -23 -1 -22 1 10 18 19 10 41 15 50 13 8 -3 2 6
-15 21 -16 14 -38 28 -48 32 -18 6 -18 6 0 20 10 7 14 13 8 12 -5 0 -23 -3
-38 -5z"/>
</g>
</svg>
